<svg xmlns="http://www.w3.org/2000/svg" aria-hidden="true" style="position:absolute;width:0;height:0;overflow:hidden">
  <defs>
    <symbol id="icon-youtube" viewBox="0 0 26 32">
      <path d="m8.078 12.264.002-6.469L10.292.253H8.244L7.068 4.37 5.875.242H3.849l2.353 5.556.003 6.465h1.873zm2.267-7.515c-.134.456-.201 1.088-.201 1.897v2.233c0 .74.036 1.294.111 1.663.074.369.197.686.372.946.173.26.417.455.731.585.313.131.695.193 1.147.193.406 0 .764-.074 1.076-.227.311-.15.567-.386.765-.701.201-.318.33-.658.39-1.024s.092-.941.092-1.724V6.457c0-.618-.032-1.077-.099-1.381a2.734 2.734 0 0 0-.368-.879 1.97 1.97 0 0 0-.761-.692c-.329-.176-.723-.267-1.181-.267-.545 0-.994.138-1.345.415a2.11 2.11 0 0 0-.729 1.095zm5.811 6.661c.091.224.234.404.428.541.19.134.436.202.728.202.256 0 .484-.069.681-.213s.365-.355.5-.638l-.034.698h1.984V3.565h-1.562v6.565a.652.652 0 0 1-1.302 0V3.565h-1.63v5.689c0 .725.013 1.208.035 1.453.023.243.079.477.171.702zM25.6 27v-9.056c0-2.172-1.884-3.951-4.188-3.951H4.189C1.884 13.993 0 15.771 0 17.944V27c0 2.172 1.884 3.95 4.189 3.95h17.222c2.304 0 4.189-1.777 4.189-3.95zm-10.27-6.394c-.427 0-.777.288-.777.639v4.761c0 .352.35.638.777.638.43 0 .78-.286.78-.638v-4.761c0-.351-.35-.639-.78-.639zm6.325 2.098h-1.687l.008-.979c0-.436.357-.791.794-.791h.108c.437 0 .796.356.796.791l-.02.979zM5.337 27.983l-.001-9.54 2.135.001V17.03l-5.691-.009v1.389l1.777.005v9.567h1.78zm4.62-8.119h1.78v8.116l-1.429-.002.003-1.052c-.384.824-1.919 1.488-2.719.91-.378-.27-.412-.718-.444-1.136a8.777 8.777 0 0 0-.014-.174 11.67 11.67 0 0 1-.009-.883c.002-.216.004-.461.004-.73l-.007-5.048h1.77l.008 5.129c0 .266-.005.49-.009.673-.007.298-.012.487.015.571.253.771.904.352 1.049-.043.028-.078.023-.243.015-.523-.005-.184-.012-.419-.012-.712v-5.094zm7.475 5.834-.003-4.24c-.002-1.616-1.211-2.584-2.853-1.277l.007-3.152-1.778.003-.009 10.88 1.462-.022.133-.678c1.869 1.715 3.044.541 3.041-1.514zm4.236-.555 1.335-.007c.608 3.615-4.498 4.209-4.499.006v-2.528c0-.759.075-1.355.227-1.792s.409-.763.748-1.006c1.078-.778 3.212-.537 3.431.983.069.48.091 1.32.091 2.16v1.15h-3.056v1.959c0 .398.329.723.73.723h.261c.4 0 .729-.324.729-.723v-.744l.002-.083.002-.098zM11.697 9.997c0 .477.356.867.789.867s.787-.39.787-.867V5.506c0-.477-.354-.867-.787-.867s-.789.39-.789.867v4.491z"/>
    </symbol>
    <symbol id="icon-behance" viewBox="0 0 43 32">
      <path d="M17.221 14.593s4.031-.314 4.031-5.331c0-5.004-3.297-7.458-7.483-7.458H0v28.019h13.768s8.411.273 8.411-8.276c.001 0 .361-6.954-4.958-6.954zm6.001 5.099c0-.055.013-10.758 10.162-10.758 10.717 0 9.21 12.162 9.21 12.162H28.89c0 5.195 4.65 4.868 4.65 4.868 4.404 0 4.25-3.013 4.25-3.013h4.649c0 8.003-9.055 7.458-9.055 7.458-10.857 0-10.162-10.717-10.162-10.717zm10.266-6.654c-4.083 0-4.65 4.309-4.65 4.309h8.681s.065-4.309-4.031-4.309zM13.769 6.78H6.067v6.258h7.225c1.25 0 2.345-.423 2.345-3.341s-1.868-2.918-1.868-2.918zm-.386 18.066H6.067v-7.5h7.702s2.795-.027 2.782 3.858c0 3.273-2.073 3.614-3.168 3.641zM27.692 6.903v-3.45h10.923v3.45H27.692z"/>
    </symbol>
    <symbol id="icon-twitter" viewBox="0 0 36 32">
      <path d="M35.556 4.658a14.2 14.2 0 0 1-4.19 1.185 7.522 7.522 0 0 0 3.208-4.168 14.334 14.334 0 0 1-4.632 1.828c-1.331-1.464-3.227-2.379-5.326-2.379-4.028 0-7.295 3.375-7.295 7.535 0 .591.065 1.166.19 1.717-6.062-.314-11.438-3.314-15.036-7.874a7.692 7.692 0 0 0-.988 3.789c0 2.614 1.289 4.921 3.245 6.272a7.071 7.071 0 0 1-3.304-.944l-.001.096c0 3.651 2.516 6.696 5.852 7.388a7.05 7.05 0 0 1-3.294.131c.928 2.993 3.621 5.172 6.814 5.233-2.497 2.021-5.642 3.226-9.061 3.226-.588 0-1.17-.035-1.739-.106 3.227 2.139 7.062 3.386 11.181 3.386 13.418 0 20.755-11.482 20.755-21.441 0-.326-.007-.652-.021-.974a15.088 15.088 0 0 0 3.641-3.9z"/>
    </symbol>
    <symbol id="icon-dribbble" viewBox="0 0 30 32">
      <path d="M15.238.677C6.836.677 0 7.582 0 16.069s6.836 15.392 15.238 15.392 15.239-6.904 15.239-15.392S23.641.677 15.238.677zm10.027 7.265a13.016 13.016 0 0 1 2.843 7.929 31.461 31.461 0 0 0-5.955-.582c-.944 0-1.938.048-2.935.172a40.434 40.434 0 0 0-1.082-2.447c4.505-1.877 6.678-4.482 7.129-5.072zM23.72 6.316a12.748 12.748 0 0 0-11.384-2.894 70.56 70.56 0 0 1 4.735 7.51c4.344-1.66 6.29-4.12 6.649-4.615zM9.708 4.348a83.989 83.989 0 0 1 4.71 7.417c-5.535 1.472-10.45 1.567-11.636 1.567h-.126a13.028 13.028 0 0 1 7.052-8.984zM2.369 15.769a13.025 13.025 0 0 0 3.237 8.937c.544-.909 4.081-6.474 10.515-8.576.141-.047.284-.089.428-.13a43.623 43.623 0 0 0-.984-2.079C9.85 15.636 4.305 15.77 2.707 15.77l-.338-.001zm12.869 13.323a12.725 12.725 0 0 1-7.852-2.707c.368-.729 3.037-5.59 10.088-8.072l.014-.005c1.768 4.656 2.517 8.563 2.722 9.774-1.53.651-3.21 1.01-4.973 1.01zm4.824-11.422c1.601 4.466 2.295 8.128 2.467 9.13a13.042 13.042 0 0 0 5.408-8.58c-.489-.151-2.594-.747-5.285-.747-.819 0-1.693.056-2.591.197z"/>
    </symbol>
    <symbol id="icon-group" viewBox="0 0 47 32">
      <path d="M.009 15.615C-.268 8.201 6.123 1.35 13.428 1.261c3.723-.323 7.345 1.146 10.162 3.542-1.156 1.291-2.332 2.567-3.588 3.762-2.48-1.531-5.466-2.698-8.365-1.662C6.962 8.256 4.13 13.864 5.86 18.512c1.433 4.854 7.243 7.517 11.797 5.478 2.358-.858 3.912-3.068 4.595-5.444-2.702-.055-5.405-.02-8.108-.096-.007-1.634-.013-3.261-.007-4.895 4.507-.007 9.02-.021 13.533.021.277 4.003-.304 8.286-2.865 11.499-3.507 4.586-9.986 5.932-15.257 4.132C3.954 27.34-.114 21.615.008 15.615zM38.422 7.854h4.23c.008 1.468.021 2.943.029 4.41 1.415.015 2.837.022 4.252.029v4.395l-4.252.022c-.014 1.475-.021 2.942-.029 4.417-1.415-.007-2.831 0-4.238 0-.013-1.475-.013-2.942-.028-4.41-1.415-.015-2.837-.022-4.252-.03v-4.395c1.415-.007 2.831-.015 4.252-.029.007-1.466.021-2.942.036-4.409z"/>
    </symbol>
    <symbol id="icon-instagram" viewBox="0 0 30 32">
      <path d="M9.524.231h11.429c5.259 0 9.524 4.308 9.524 9.62v11.544c0 5.312-4.265 9.62-9.524 9.62H9.524C4.265 31.015 0 26.707 0 21.395V9.851C0 4.539 4.265.231 9.524.231zm11.428 27.898c3.676 0 6.667-3.021 6.667-6.734V9.851c0-3.713-2.99-6.734-6.667-6.734H9.523c-3.676 0-6.667 3.021-6.667 6.734v11.544c0 3.713 2.99 6.734 6.667 6.734h11.429z"/>
      <path d="M7.619 15.623c0-4.25 3.411-7.696 7.619-7.696s7.619 3.446 7.619 7.696-3.411 7.696-7.619 7.696-7.619-3.446-7.619-7.696zm2.857 0c0 2.651 2.137 4.81 4.762 4.81S20 18.274 20 15.623c0-2.653-2.137-4.81-4.762-4.81s-4.762 2.157-4.762 4.81zM22.857 7.927c.842 0 1.524-.689 1.524-1.539s-.682-1.539-1.524-1.539-1.524.689-1.524 1.539.682 1.539 1.524 1.539z"/>
    </symbol>
    <symbol id="icon-vimeo" viewBox="0 0 34 32">
      <path d="M0 9.633c2.964-2.399 7.178-7.667 10.465-7.667 3.283 0 4.089 3.932 4.537 7.498.454 3.566 1.743 11.368 3.479 11.368 1.74 0 5.7-6.902 5.474-9.568-.222-2.666-3.091-2.266-4.668-1.501 1.45-5.332 4.799-8.168 9.08-8.168 4.283 0 5.316 3.068 5.316 6.835 0 5.734-11.462 23.303-18.387 23.303-4.284 0-5.346-6.401-6.213-9.57-.87-3.164-2.578-11.469-4.575-12.001-.775-.131-2.962 1.631-2.962 1.631L-.002 9.631z"/>
    </symbol>
    <symbol id="icon-pinterest" viewBox="0 0 23 32">
      <path d="M19.893 4.294c-2.002-2.034-4.772-3.155-7.8-3.155-4.626 0-7.471 2.007-9.043 3.691C1.112 6.905.001 9.66.001 12.39c0 3.427 1.354 6.057 3.622 7.035.152.066.305.099.456.099.478 0 .857-.331.989-.863.077-.305.254-1.057.331-1.384.165-.645.032-.955-.328-1.404-.656-.821-.961-1.793-.961-3.057 0-3.755 2.641-7.746 7.537-7.746 3.884 0 6.297 2.337 6.297 6.099 0 2.374-.483 4.572-1.36 6.191-.61 1.124-1.682 2.465-3.328 2.465-.712 0-1.351-.309-1.754-.849-.381-.51-.507-1.169-.353-1.856.173-.776.409-1.585.638-2.368.417-1.429.811-2.779.811-3.855 0-1.842-1.07-3.079-2.662-3.079-2.023 0-3.608 2.175-3.608 4.952 0 1.362.342 2.38.497 2.771-.255 1.143-1.769 7.938-2.057 9.22-.166.748-1.167 6.656.49 7.127 1.861.529 3.525-5.225 3.694-5.875.137-.529.617-2.528.912-3.758.898.916 2.345 1.535 3.752 1.535 2.653 0 5.04-1.264 6.719-3.559 1.629-2.226 2.526-5.328 2.526-8.735 0-2.663-1.081-5.289-2.964-7.204z"/>
    </symbol>
    <symbol id="icon-facebook-logo" viewBox="0 0 18 32">
      <path d="M16.937.007 12.716 0C7.973 0 4.908 3.091 4.908 7.875v3.631H.664a.658.658 0 0 0-.664.653v5.261c0 .36.297.652.664.652h4.244v13.275c0 .36.297.652.664.652h5.538a.658.658 0 0 0 .664-.652V18.072h4.963a.658.658 0 0 0 .664-.652l.002-5.261c0-.173-.07-.339-.194-.461s-.294-.191-.47-.191h-4.964V8.429c0-1.479.359-2.23 2.319-2.23l2.844-.001a.658.658 0 0 0 .664-.652V.661a.658.658 0 0 0-.663-.652z"/>
    </symbol>
  </defs>
</svg>
