<svg xmlns="http://www.w3.org/2000/svg" aria-hidden="true" style="position:absolute;width:0;height:0;overflow:hidden">
  <defs>
    <symbol id="icon-youtube" viewBox="0 0 26 32">
      <path d="m8.078 12.264.002-6.469L10.292.253H8.244L7.068 4.37 5.875.242H3.849l2.353 5.556.003 6.465h1.873zm2.267-7.515c-.134.456-.201 1.088-.201 1.897v2.233c0 .74.036 1.294.111 1.663.074.369.197.686.372.946.173.26.417.455.731.585.313.131.695.193 1.147.193.406 0 .764-.074 1.076-.227.311-.15.567-.386.765-.701.201-.318.33-.658.39-1.024s.092-.941.092-1.724V6.457c0-.618-.032-1.077-.099-1.381a2.734 2.734 0 0 0-.368-.879 1.97 1.97 0 0 0-.761-.692c-.329-.176-.723-.267-1.181-.267-.545 0-.994.138-1.345.415a2.11 2.11 0 0 0-.729 1.095zm5.811 6.661c.091.224.234.404.428.541.19.134.436.202.728.202.256 0 .484-.069.681-.213s.365-.355.5-.638l-.034.698h1.984V3.565h-1.562v6.565a.652.652 0 0 1-1.302 0V3.565h-1.63v5.689c0 .725.013 1.208.035 1.453.023.243.079.477.171.702zM25.6 27v-9.056c0-2.172-1.884-3.951-4.188-3.951H4.189C1.884 13.993 0 15.771 0 17.944V27c0 2.172 1.884 3.95 4.189 3.95h17.222c2.304 0 4.189-1.777 4.189-3.95zm-10.27-6.394c-.427 0-.777.288-.777.639v4.761c0 .352.35.638.777.638.43 0 .78-.286.78-.638v-4.761c0-.351-.35-.639-.78-.639zm6.325 2.098h-1.687l.008-.979c0-.436.357-.791.794-.791h.108c.437 0 .796.356.796.791l-.02.979zM5.337 27.983l-.001-9.54 2.135.001V17.03l-5.691-.009v1.389l1.777.005v9.567h1.78zm4.62-8.119h1.78v8.116l-1.429-.002.003-1.052c-.384.824-1.919 1.488-2.719.91-.378-.27-.412-.718-.444-1.136a8.777 8.777 0 0 0-.014-.174 11.67 11.67 0 0 1-.009-.883c.002-.216.004-.461.004-.73l-.007-5.048h1.77l.008 5.129c0 .266-.005.49-.009.673-.007.298-.012.487.015.571.253.771.904.352 1.049-.043.028-.078.023-.243.015-.523-.005-.184-.012-.419-.012-.712v-5.094zm7.475 5.834-.003-4.24c-.002-1.616-1.211-2.584-2.853-1.277l.007-3.152-1.778.003-.009 10.88 1.462-.022.133-.678c1.869 1.715 3.044.541 3.041-1.514zm4.236-.555 1.335-.007c.608 3.615-4.498 4.209-4.499.006v-2.528c0-.759.075-1.355.227-1.792s.409-.763.748-1.006c1.078-.778 3.212-.537 3.431.983.069.48.091 1.32.091 2.16v1.15h-3.056v1.959c0 .398.329.723.73.723h.261c.4 0 .729-.324.729-.723v-.744l.002-.083.002-.098zM11.697 9.997c0 .477.356.867.789.867s.787-.39.787-.867V5.506c0-.477-.354-.867-.787-.867s-.789.39-.789.867v4.491z"/>
    </symbol>
    <symbol id="icon-behance" viewBox="0 0 43 32">
      <path d="M17.221 14.593s4.031-.314 4.031-5.331c0-5.004-3.297-7.458-7.483-7.458H0v28.019h13.768s8.411.273 8.411-8.276c.001 0 .361-6.954-4.958-6.954zm6.001 5.099c0-.055.013-10.758 10.162-10.758 10.717 0 9.21 12.162 9.21 12.162H28.89c0 5.195 4.65 4.868 4.65 4.868 4.404 0 4.25-3.013 4.25-3.013h4.649c0 8.003-9.055 7.458-9.055 7.458-10.857 0-10.162-10.717-10.162-10.717zm10.266-6.654c-4.083 0-4.65 4.309-4.65 4.309h8.681s.065-4.309-4.031-4.309zM13.769 6.78H6.067v6.258h7.225c1.25 0 2.345-.423 2.345-3.341s-1.868-2.918-1.868-2.918zm-.386 18.066H6.067v-7.5h7.702s2.795-.027 2.782 3.858c0 3.273-2.073 3.614-3.168 3.641zM27.692 6.903v-3.45h10.923v3.45H27.692z"/>
    </symbol>
    <symbol id="icon-twitter" viewBox="0 0 36 32">
      <path d="M35.556 4.658a14.2 14.2 0 0 1-4.19 1.185 7.522 7.522 0 0 0 3.208-4.168 14.334 14.334 0 0 1-4.632 1.828c-1.331-1.464-3.227-2.379-5.326-2.379-4.028 0-7.295 3.375-7.295 7.535 0 .591.065 1.166.19 1.717-6.062-.314-11.438-3.314-15.036-7.874a7.692 7.692 0 0 0-.988 3.789c0 2.614 1.289 4.921 3.245 6.272a7.071 7.071 0 0 1-3.304-.944l-.001.096c0 3.651 2.516 6.696 5.852 7.388a7.05 7.05 0 0 1-3.294.131c.928 2.993 3.621 5.172 6.814 5.233-2.497 2.021-5.642 3.226-9.061 3.226-.588 0-1.17-.035-1.739-.106 3.227 2.139 7.062 3.386 11.181 3.386 13.418 0 20.755-11.482 20.755-21.441 0-.326-.007-.652-.021-.974a15.088 15.088 0 0 0 3.641-3.9z"/>
    </symbol>
    <symbol id="icon-dribbble" viewBox="0 0 30 32">
      <path d="M15.238.677C6.836.677 0 7.582 0 16.069s6.836 15.392 15.238 15.392 15.239-6.904 15.239-15.392S23.641.677 15.238.677zm10.027 7.265a13.016 13.016 0 0 1 2.843 7.929 31.461 31.461 0 0 0-5.955-.582c-.944 0-1.938.048-2.935.172a40.434 40.434 0 0 0-1.082-2.447c4.505-1.877 6.678-4.482 7.129-5.072zM23.72 6.316a12.748 12.748 0 0 0-11.384-2.894 70.56 70.56 0 0 1 4.735 7.51c4.344-1.66 6.29-4.12 6.649-4.615zM9.708 4.348a83.989 83.989 0 0 1 4.71 7.417c-5.535 1.472-10.45 1.567-11.636 1.567h-.126a13.028 13.028 0 0 1 7.052-8.984zM2.369 15.769a13.025 13.025 0 0 0 3.237 8.937c.544-.909 4.081-6.474 10.515-8.576.141-.047.284-.089.428-.13a43.623 43.623 0 0 0-.984-2.079C9.85 15.636 4.305 15.77 2.707 15.77l-.338-.001zm12.869 13.323a12.725 12.725 0 0 1-7.852-2.707c.368-.729 3.037-5.59 10.088-8.072l.014-.005c1.768 4.656 2.517 8.563 2.722 9.774-1.53.651-3.21 1.01-4.973 1.01zm4.824-11.422c1.601 4.466 2.295 8.128 2.467 9.13a13.042 13.042 0 0 0 5.408-8.58c-.489-.151-2.594-.747-5.285-.747-.819 0-1.693.056-2.591.197z"/>
    </symbol>
    <symbol id="icon-group" viewBox="0 0 47 32">
      <path d="M.009 15.615C-.268 8.201 6.123 1.35 13.428 1.261c3.723-.323 7.345 1.146 10.162 3.542-1.156 1.291-2.332 2.567-3.588 3.762-2.48-1.531-5.466-2.698-8.365-1.662C6.962 8.256 4.13 13.864 5.86 18.512c1.433 4.854 7.243 7.517 11.797 5.478 2.358-.858 3.912-3.068 4.595-5.444-2.702-.055-5.405-.02-8.108-.096-.007-1.634-.013-3.261-.007-4.895 4.507-.007 9.02-.021 13.533.021.277 4.003-.304 8.286-2.865 11.499-3.507 4.586-9.986 5.932-15.257 4.132C3.954 27.34-.114 21.615.008 15.615zM38.422 7.854h4.23c.008 1.468.021 2.943.029 4.41 1.415.015 2.837.022 4.252.029v4.395l-4.252.022c-.014 1.475-.021 2.942-.029 4.417-1.415-.007-2.831 0-4.238 0-.013-1.475-.013-2.942-.028-4.41-1.415-.015-2.837-.022-4.252-.03v-4.395c1.415-.007 2.831-.015 4.252-.029.007-1.466.021-2.942.036-4.409z"/>
    </symbol>
    <symbol id="icon-instagram" viewBox="0 0 30 32">
      <path d="M9.524.231h11.429c5.259 0 9.524 4.308 9.524 9.62v11.544c0 5.312-4.265 9.62-9.524 9.62H9.524C4.265 31.015 0 26.707 0 21.395V9.851C0 4.539 4.265.231 9.524.231zm11.428 27.898c3.676 0 6.667-3.021 6.667-6.734V9.851c0-3.713-2.99-6.734-6.667-6.734H9.523c-3.676 0-6.667 3.021-6.667 6.734v11.544c0 3.713 2.99 6.734 6.667 6.734h11.429z"/>
      <path d="M7.619 15.623c0-4.25 3.411-7.696 7.619-7.696s7.619 3.446 7.619 7.696-3.411 7.696-7.619 7.696-7.619-3.446-7.619-7.696zm2.857 0c0 2.651 2.137 4.81 4.762 4.81S20 18.274 20 15.623c0-2.653-2.137-4.81-4.762-4.81s-4.762 2.157-4.762 4.81zM22.857 7.927c.842 0 1.524-.689 1.524-1.539s-.682-1.539-1.524-1.539-1.524.689-1.524 1.539.682 1.539 1.524 1.539z"/>
    </symbol>
    <symbol id="icon-vimeo" viewBox="0 0 34 32">
      <path d="M0 9.633c2.964-2.399 7.178-7.667 10.465-7.667 3.283 0 4.089 3.932 4.537 7.498.454 3.566 1.743 11.368 3.479 11.368 1.74 0 5.7-6.902 5.474-9.568-.222-2.666-3.091-2.266-4.668-1.501 1.45-5.332 4.799-8.168 9.08-8.168 4.283 0 5.316 3.068 5.316 6.835 0 5.734-11.462 23.303-18.387 23.303-4.284 0-5.346-6.401-6.213-9.57-.87-3.164-2.578-11.469-4.575-12.001-.775-.131-2.962 1.631-2.962 1.631L-.002 9.631z"/>
    </symbol>
    <symbol id="icon-pinterest" viewBox="0 0 23 32">
      <path d="M19.893 4.294c-2.002-2.034-4.772-3.155-7.8-3.155-4.626 0-7.471 2.007-9.043 3.691C1.112 6.905.001 9.66.001 12.39c0 3.427 1.354 6.057 3.622 7.035.152.066.305.099.456.099.478 0 .857-.331.989-.863.077-.305.254-1.057.331-1.384.165-.645.032-.955-.328-1.404-.656-.821-.961-1.793-.961-3.057 0-3.755 2.641-7.746 7.537-7.746 3.884 0 6.297 2.337 6.297 6.099 0 2.374-.483 4.572-1.36 6.191-.61 1.124-1.682 2.465-3.328 2.465-.712 0-1.351-.309-1.754-.849-.381-.51-.507-1.169-.353-1.856.173-.776.409-1.585.638-2.368.417-1.429.811-2.779.811-3.855 0-1.842-1.07-3.079-2.662-3.079-2.023 0-3.608 2.175-3.608 4.952 0 1.362.342 2.38.497 2.771-.255 1.143-1.769 7.938-2.057 9.22-.166.748-1.167 6.656.49 7.127 1.861.529 3.525-5.225 3.694-5.875.137-.529.617-2.528.912-3.758.898.916 2.345 1.535 3.752 1.535 2.653 0 5.04-1.264 6.719-3.559 1.629-2.226 2.526-5.328 2.526-8.735 0-2.663-1.081-5.289-2.964-7.204z"/>
    </symbol>
    <symbol id="icon-facebook-logo" viewBox="0 0 18 32">
      <path d="M16.937.007 12.716 0C7.973 0 4.908 3.091 4.908 7.875v3.631H.664a.658.658 0 0 0-.664.653v5.261c0 .36.297.652.664.652h4.244v13.275c0 .36.297.652.664.652h5.538a.658.658 0 0 0 .664-.652V18.072h4.963a.658.658 0 0 0 .664-.652l.002-5.261c0-.173-.07-.339-.194-.461s-.294-.191-.47-.191h-4.964V8.429c0-1.479.359-2.23 2.319-2.23l2.844-.001a.658.658 0 0 0 .664-.652V.661a.658.658 0 0 0-.663-.652z"/>
    </symbol>
    <symbol id="icon-path" viewBox="0 0 19 32">
<path stroke-linejoin="round" stroke-linecap="round" stroke-miterlimit="4" stroke-width="4.2656" d="M16 3.2l-12.8 12.8 12.8 12.8"></path>
</symbol>
<symbol id="icon-path-right" viewBox="0 0 19 32">
<path stroke-linejoin="round" stroke-linecap="round" stroke-miterlimit="4" stroke-width="4.2656" d="M3.2 3.2l12.8 12.8-12.8 12.8"></path>
</symbol>
<symbol id="icon-categories" viewBox="0 0 31 32">
<path d="M12.112 3.21h0.048c0.006 0.034 0.012 0.077 0.016 0.13 0.005 0.051 0.006 0.101 0.004 0.15-0.018 0.015-0.040 0.027-0.066 0.037-0.022 0.008-0.049 0.015-0.078 0.021l-0.005 0.001c-0.028 0.006-0.057 0.010-0.088 0.013-0.025 0.002-0.054 0.004-0.084 0.004h-0c-0.102 0-0.194-0.013-0.274-0.038s-0.148-0.067-0.205-0.121l0 0c-0.055-0.054-0.098-0.122-0.128-0.205-0.029-0.084-0.044-0.183-0.044-0.298 0-0.119 0.016-0.221 0.049-0.304 0.033-0.084 0.077-0.152 0.133-0.205 0.056-0.054 0.121-0.093 0.196-0.117 0.069-0.023 0.148-0.037 0.231-0.037 0.001 0 0.002 0 0.004 0h-0c0.080 0 0.148 0.006 0.203 0.016 0.055 0.010 0.103 0.025 0.144 0.046 0 0.019-0.001 0.043-0.002 0.070-0.001 0.026-0.003 0.053-0.005 0.082s-0.005 0.058-0.009 0.086-0.007 0.054-0.011 0.077h-0.048l-0.095-0.263c-0.014-0.007-0.036-0.012-0.068-0.015-0.027-0.002-0.059-0.004-0.091-0.004v0c-0.061 0-0.119 0.012-0.174 0.035-0.057 0.024-0.104 0.059-0.142 0.104l-0 0.001c-0.040 0.046-0.073 0.106-0.097 0.177-0.024 0.071-0.037 0.154-0.037 0.251 0 0.087 0.011 0.165 0.033 0.236 0.022 0.070 0.054 0.129 0.095 0.179 0.041 0.049 0.092 0.087 0.152 0.113 0.060 0.026 0.127 0.038 0.203 0.038 0.040 0 0.074-0.003 0.101-0.009s0.044-0.014 0.053-0.024l0.086-0.227zM13.038 3.303c0 0.027 0.001 0.050 0.002 0.070s0.002 0.040 0.004 0.062l0.126 0.018v0.038c-0.029 0.015-0.063 0.029-0.098 0.041l-0.005 0.001c-0.037 0.012-0.072 0.021-0.106 0.027h-0.046c-0.012-0.027-0.020-0.058-0.022-0.091l-0-0.001c-0.002-0.029-0.004-0.068-0.005-0.107l-0-0.004h-0.009c-0.006 0.028-0.016 0.053-0.030 0.076l0.001-0.001c-0.015 0.026-0.033 0.048-0.054 0.066l-0 0c-0.022 0.019-0.048 0.035-0.079 0.048s-0.065 0.018-0.104 0.018c-0.074 0-0.135-0.022-0.183-0.068-0.046-0.045-0.069-0.104-0.069-0.177 0-0.056 0.011-0.102 0.033-0.137 0.023-0.037 0.057-0.065 0.101-0.086s0.098-0.035 0.163-0.044c0.065-0.010 0.14-0.017 0.225-0.022 0.005-0.052 0.006-0.099 0.004-0.141-0.001-0.043-0.008-0.079-0.020-0.108-0.010-0.029-0.027-0.053-0.051-0.069l-0-0c-0.022-0.017-0.051-0.026-0.088-0.026-0.017 0-0.037 0.001-0.059 0.004-0.021 0.001-0.041 0.006-0.062 0.015l-0.086 0.219h-0.048c-0.012-0.037-0.023-0.074-0.033-0.113-0.008-0.033-0.013-0.072-0.016-0.113l-0-0.002c0.044-0.027 0.095-0.049 0.149-0.065l0.004-0.001c0.055-0.015 0.118-0.024 0.183-0.024 0.003 0 0.005 0 0.008 0h-0c0.062 0 0.112 0.009 0.148 0.027 0.038 0.017 0.066 0.040 0.086 0.068s0.032 0.059 0.038 0.093c0.006 0.034 0.009 0.068 0.009 0.102 0 0.073-0.002 0.144-0.005 0.212-0.002 0.058-0.004 0.125-0.004 0.194v0zM12.685 3.451c0.030 0 0.057-0.006 0.080-0.018s0.042-0.026 0.058-0.044l0-0c0.016-0.017 0.029-0.034 0.038-0.051 0.010-0.018 0.016-0.034 0.020-0.046v-0.192c-0.071 0-0.129 0.004-0.174 0.011s-0.080 0.019-0.106 0.035c-0.024 0.014-0.042 0.035-0.053 0.060l-0 0.001c-0.009 0.023-0.015 0.049-0.015 0.076 0 0.001 0 0.003 0 0.004v-0c0 0.052 0.014 0.093 0.040 0.123 0.027 0.028 0.063 0.042 0.11 0.042zM13.239 2.672c0.042-0.027 0.091-0.049 0.143-0.061l0.003-0.001v-0.155c0.016-0.012 0.034-0.024 0.055-0.035 0.022-0.012 0.043-0.022 0.064-0.031h0.046v0.24h0.274v0.091h-0.274v0.53c0 0.073 0.012 0.125 0.035 0.155s0.058 0.046 0.104 0.046c0.022 0 0.049-0.001 0.082-0.004 0.033-0.004 0.061-0.010 0.084-0.018l0.013 0.027c-0.012 0.013-0.026 0.025-0.041 0.034l-0.001 0.001c-0.017 0.012-0.037 0.024-0.060 0.035-0.021 0.010-0.045 0.020-0.070 0.027l-0.003 0.001c-0.025 0.007-0.053 0.011-0.082 0.011-0 0-0 0-0 0h0c-0.073 0-0.129-0.021-0.168-0.062-0.038-0.042-0.057-0.109-0.057-0.201v-0.582h-0.146v-0.048zM14.706 3.415c-0.012 0.023-0.027 0.042-0.045 0.058l-0 0c-0.021 0.018-0.044 0.034-0.071 0.048-0.025 0.013-0.054 0.023-0.085 0.031l-0.003 0.001c-0.032 0.009-0.064 0.013-0.097 0.013-0.072 0-0.135-0.011-0.19-0.033s-0.1-0.055-0.137-0.097l-0-0c-0.036-0.043-0.065-0.093-0.083-0.149l-0.001-0.003c-0.017-0.056-0.027-0.121-0.027-0.189 0-0.003 0-0.006 0-0.009v0c0-0.156 0.036-0.275 0.108-0.357s0.174-0.123 0.305-0.123c0.043 0 0.085 0.006 0.126 0.018 0.086 0.023 0.155 0.084 0.188 0.163l0.001 0.002c0.021 0.044 0.031 0.099 0.031 0.165 0 0.021-0.001 0.042-0.004 0.064-0.002 0.025-0.005 0.048-0.010 0.071l0.001-0.003h-0.57c0 0.051 0.006 0.099 0.018 0.144 0.013 0.044 0.033 0.082 0.059 0.115s0.058 0.059 0.097 0.079c0.039 0.018 0.085 0.027 0.137 0.027 0.043 0 0.086-0.006 0.13-0.018s0.077-0.028 0.099-0.048l0.026 0.029zM14.371 2.687c-0.069 0-0.123 0.024-0.159 0.071-0.037 0.046-0.059 0.129-0.066 0.247h0.402c0.001-0.009 0.002-0.020 0.002-0.031v-0c0.001-0.009 0.002-0.020 0.002-0.031v-0c0-0.078-0.015-0.14-0.044-0.187s-0.075-0.070-0.137-0.070zM15.261 2.607c0.066 0 0.121 0.007 0.166 0.020 0.045 0.012 0.083 0.032 0.113 0.058 0.065-0.045 0.139-0.081 0.219-0.105l0.005-0.001c0.010 0.013 0.016 0.030 0.020 0.049 0.005 0.019 0.007 0.038 0.007 0.055l-0.024 0.044h-0.192c0.030 0.044 0.046 0.102 0.046 0.174 0 0.088-0.031 0.159-0.093 0.214-0.061 0.055-0.15 0.082-0.269 0.082-0.001 0-0.003 0-0.005 0-0.036 0-0.071-0.003-0.105-0.008l0.004 0c-0.009 0.015-0.016 0.027-0.024 0.039l0.002-0.003c-0.007 0.012-0.011 0.027-0.011 0.042v0c0 0.024 0.014 0.044 0.042 0.058 0.028 0.013 0.063 0.026 0.104 0.037 0.043 0.011 0.088 0.022 0.137 0.035 0.050 0.011 0.096 0.027 0.139 0.048 0.043 0.019 0.078 0.046 0.106 0.079 0.029 0.032 0.044 0.073 0.046 0.124 0.001 0.044-0.009 0.083-0.031 0.119s-0.051 0.066-0.087 0.087l-0.001 0.001c-0.039 0.025-0.085 0.044-0.134 0.054l-0.003 0.001c-0.050 0.013-0.108 0.020-0.167 0.020-0.002 0-0.005 0-0.007-0h0c-0.133 0-0.233-0.022-0.302-0.068-0.067-0.045-0.101-0.102-0.101-0.17 0-0.033 0.005-0.062 0.015-0.086 0.011-0.024 0.026-0.046 0.046-0.064s0.044-0.034 0.073-0.048c0.028-0.014 0.061-0.028 0.095-0.039l0.005-0.001c-0.027-0.012-0.049-0.029-0.068-0.049l-0-0c-0.016-0.021-0.026-0.047-0.026-0.076 0-0.001 0-0.002 0-0.003v0c0-0.028 0.012-0.055 0.035-0.082 0.024-0.028 0.049-0.050 0.073-0.066-0.069-0.018-0.123-0.053-0.161-0.104-0.034-0.047-0.055-0.106-0.055-0.17 0-0.001 0-0.002 0-0.004v0c0-0.001 0-0.002 0-0.003 0-0.082 0.036-0.156 0.093-0.207l0-0c0.030-0.027 0.068-0.048 0.113-0.062s0.095-0.022 0.148-0.022c0.003 0 0.006 0 0.009 0h-0zM15.532 3.691c0-0.039-0.013-0.070-0.040-0.093s-0.060-0.043-0.095-0.056l-0.002-0.001c-0.035-0.013-0.077-0.026-0.12-0.035l-0.006-0.001c-0.053-0.011-0.095-0.023-0.136-0.036l0.010 0.003c-0.046 0.028-0.077 0.057-0.091 0.088-0.015 0.032-0.022 0.064-0.022 0.097 0 0.065 0.023 0.113 0.069 0.144 0.046 0.033 0.113 0.049 0.201 0.049 0.045 0 0.082-0.004 0.112-0.013 0.030-0.009 0.054-0.020 0.071-0.035 0.017-0.012 0.030-0.029 0.038-0.049l0-0.001c0.007-0.019 0.011-0.040 0.011-0.062zM15.062 2.901c0 0.029 0.003 0.057 0.009 0.084 0.007 0.026 0.019 0.048 0.033 0.068l-0-0.001c0.016 0.019 0.037 0.035 0.062 0.048 0.026 0.011 0.057 0.016 0.095 0.016 0.071 0 0.121-0.021 0.152-0.062s0.046-0.093 0.046-0.154c0-0.066-0.015-0.118-0.046-0.155-0.029-0.039-0.080-0.058-0.152-0.058-0.074 0-0.126 0.019-0.155 0.057-0.029 0.037-0.044 0.089-0.044 0.157zM15.847 3.086c0-0.077 0.010-0.144 0.029-0.203 0.021-0.060 0.050-0.11 0.088-0.15 0.038-0.042 0.083-0.073 0.135-0.093 0.051-0.021 0.11-0.033 0.172-0.033 0.002 0 0.004 0 0.006 0h-0c0.076 0 0.141 0.012 0.196 0.035s0.099 0.056 0.134 0.099c0.035 0.042 0.061 0.091 0.077 0.15 0.017 0.058 0.026 0.124 0.026 0.196 0 0.154-0.039 0.272-0.117 0.355s-0.183 0.124-0.314 0.124c-0.073 0-0.137-0.011-0.19-0.033s-0.098-0.055-0.133-0.096l-0-0c-0.035-0.043-0.063-0.093-0.080-0.149l-0.001-0.003c-0.016-0.057-0.026-0.122-0.026-0.19 0-0.003 0-0.005 0-0.008v0zM16.023 3.086c0 0.055 0.005 0.107 0.015 0.155 0.011 0.049 0.027 0.091 0.049 0.128 0.023 0.035 0.053 0.063 0.090 0.084s0.080 0.031 0.132 0.031c0.066 0 0.119-0.032 0.161-0.097 0.043-0.065 0.064-0.165 0.064-0.302 0-0.056-0.006-0.108-0.016-0.155-0.009-0.048-0.025-0.090-0.049-0.128l0.001 0.002c-0.021-0.035-0.049-0.064-0.083-0.085l-0.001-0.001c-0.034-0.021-0.075-0.031-0.122-0.031-0.072 0-0.13 0.032-0.174 0.097s-0.066 0.165-0.066 0.302zM17.229 2.766c-0.014 0.007-0.030 0.022-0.051 0.046-0.020 0.022-0.037 0.055-0.053 0.099v0.543c0.024 0.002 0.049 0.007 0.073 0.015 0.024 0.006 0.049 0.016 0.073 0.029v0.046h-0.432v-0.046c0.022-0.012 0.043-0.021 0.062-0.027s0.039-0.012 0.058-0.016v-0.719l-0.121-0.015v-0.048c0.039-0.017 0.079-0.030 0.121-0.040 0.041-0.011 0.081-0.019 0.119-0.026h0.046v0.194h0.007c0.011-0.024 0.026-0.049 0.046-0.073 0.021-0.024 0.044-0.046 0.070-0.066 0.027-0.019 0.055-0.034 0.086-0.044 0.032-0.011 0.064-0.015 0.097-0.011 0.008 0.016 0.016 0.034 0.022 0.053 0.007 0.018 0.014 0.038 0.020 0.058v0.048h-0.243zM17.966 3.543h-0.406v-0.046c0.018-0.010 0.037-0.018 0.057-0.024 0.020-0.007 0.041-0.014 0.064-0.020v-0.719l-0.121-0.015v-0.048c0.035-0.015 0.074-0.027 0.115-0.038s0.083-0.020 0.124-0.027h0.046v0.847c0.024 0.006 0.046 0.013 0.066 0.020 0.021 0.007 0.039 0.015 0.056 0.024l-0.001-0.001v0.046zM17.646 2.318c0-0.033 0.010-0.059 0.031-0.079 0.022-0.019 0.051-0.029 0.086-0.029s0.063 0.010 0.084 0.029c0.021 0.019 0.031 0.046 0.031 0.079s-0.010 0.059-0.031 0.079c-0.021 0.018-0.049 0.027-0.084 0.027s-0.064-0.009-0.086-0.027c-0.021-0.019-0.031-0.046-0.031-0.079zM18.85 3.415c-0.012 0.023-0.027 0.042-0.045 0.058l-0 0c-0.021 0.018-0.045 0.034-0.071 0.048-0.025 0.013-0.054 0.023-0.085 0.031l-0.003 0.001c-0.029 0.008-0.062 0.013-0.097 0.013-0 0-0 0-0 0v0c-0.072 0-0.135-0.011-0.19-0.033s-0.1-0.055-0.137-0.097l-0-0c-0.036-0.043-0.065-0.093-0.083-0.149l-0.001-0.003c-0.017-0.056-0.027-0.121-0.027-0.189 0-0.003 0-0.006 0-0.009v0c0-0.156 0.036-0.275 0.108-0.357s0.174-0.123 0.305-0.123c0.043 0 0.085 0.006 0.126 0.018 0.086 0.023 0.155 0.083 0.188 0.163l0.001 0.002c0.021 0.044 0.031 0.099 0.031 0.165 0 0.021-0.001 0.042-0.004 0.064-0.002 0.025-0.005 0.048-0.010 0.071l0.001-0.003h-0.57c0 0.051 0.006 0.099 0.018 0.144 0.013 0.044 0.033 0.082 0.058 0.115s0.058 0.059 0.097 0.079c0.039 0.018 0.085 0.027 0.137 0.027 0.043 0 0.086-0.006 0.13-0.018s0.077-0.028 0.099-0.048l0.026 0.029zM18.516 2.687c-0.070 0-0.122 0.024-0.159 0.071-0.037 0.046-0.058 0.129-0.066 0.247h0.402c0.001-0.011 0.002-0.021 0.002-0.031 0.001-0.011 0.002-0.021 0.002-0.031 0-0.078-0.015-0.14-0.044-0.187s-0.075-0.070-0.137-0.070zM19.494 3.334c0-0.034-0.011-0.063-0.033-0.086-0.023-0.026-0.050-0.049-0.079-0.067l-0.002-0.001c-0.028-0.018-0.063-0.038-0.098-0.057l-0.008-0.004c-0.040-0.021-0.074-0.044-0.106-0.069l0.002 0.001c-0.032-0.026-0.059-0.056-0.081-0.090l-0.001-0.002c-0.021-0.034-0.031-0.076-0.031-0.126 0-0.033 0.007-0.063 0.022-0.091 0.016-0.028 0.037-0.052 0.062-0.071 0.026-0.021 0.055-0.037 0.090-0.048 0.034-0.012 0.071-0.018 0.11-0.018 0.066 0 0.119 0.004 0.161 0.011 0.043 0.007 0.083 0.018 0.122 0.031-0.005 0.039-0.011 0.079-0.018 0.119-0.008 0.047-0.017 0.088-0.029 0.128l0.002-0.007h-0.046l-0.070-0.187c-0.015-0.006-0.031-0.010-0.049-0.011l-0-0c-0.017-0.002-0.036-0.004-0.056-0.004-0 0-0 0-0.001 0h0c-0.022 0-0.041 0.004-0.058 0.013-0.016 0.007-0.030 0.017-0.042 0.029-0.011 0.012-0.019 0.026-0.025 0.041l-0 0.001c-0.006 0.016-0.009 0.032-0.009 0.048 0 0.033 0.010 0.062 0.031 0.086 0.024 0.025 0.051 0.047 0.081 0.065l0.002 0.001c0.033 0.019 0.068 0.039 0.104 0.058 0.038 0.019 0.073 0.042 0.106 0.066s0.060 0.053 0.080 0.086c0.022 0.032 0.033 0.070 0.033 0.115 0 0.042-0.009 0.079-0.027 0.112-0.017 0.033-0.041 0.061-0.073 0.084s-0.067 0.041-0.106 0.052l-0.002 0.001c-0.038 0.013-0.081 0.020-0.127 0.020-0.001 0-0.002 0-0.003 0h0c-0.002 0-0.004 0-0.006 0-0.049 0-0.097-0.005-0.143-0.015l0.004 0.001c-0.053-0.011-0.099-0.024-0.144-0.041l0.006 0.002c0.002-0.044 0.008-0.086 0.016-0.126 0.008-0.042 0.019-0.081 0.033-0.119h0.046l0.080 0.199c0.013 0.010 0.030 0.016 0.047 0.016h0c0.019 0.001 0.037 0.002 0.053 0.002 0.054 0 0.097-0.015 0.13-0.044s0.049-0.065 0.049-0.106z"></path>
<path d="M0.315 9.515c0.047 0.006 0.093 0.019 0.138 0.038v0.046h-0.406v-0.046c0.033-0.016 0.072-0.029 0.112-0.038l0.003-0.001v-0.949c-0.026-0.006-0.048-0.012-0.069-0.019l0.005 0.001c-0.021-0.008-0.038-0.016-0.055-0.024l0.004 0.002v-0.046h0.75c-0.001 0.042-0.003 0.084-0.006 0.128-0.002 0.044-0.006 0.087-0.011 0.131h-0.042l-0.066-0.176h-0.357v0.454h0.285l0.058-0.101h0.038c0.005 0.048 0.007 0.097 0.006 0.146 0 0.048-0.002 0.097-0.006 0.146h-0.038l-0.058-0.107h-0.285v0.414zM1.526 9.39c0 0.023 0.001 0.044 0.002 0.061s0.002 0.035 0.003 0.054l0.11 0.016v0.034c-0.025 0.013-0.055 0.026-0.085 0.036l-0.004 0.001c-0.026 0.009-0.057 0.017-0.089 0.023l-0.004 0.001h-0.040c-0.010-0.023-0.017-0.051-0.019-0.079l-0-0.001c-0.002-0.026-0.004-0.060-0.005-0.094l-0-0.004h-0.008c-0.005 0.025-0.014 0.047-0.026 0.067l0.001-0.001c-0.013 0.023-0.029 0.042-0.048 0.057l-0 0c-0.019 0.017-0.042 0.031-0.069 0.042s-0.057 0.016-0.091 0.016c-0.065 0-0.118-0.020-0.16-0.059-0.040-0.039-0.061-0.091-0.061-0.155 0-0.049 0.010-0.089 0.029-0.12 0.020-0.032 0.050-0.057 0.088-0.075s0.086-0.031 0.142-0.038c0.057-0.009 0.122-0.015 0.197-0.019 0.004-0.046 0.005-0.087 0.003-0.123-0-0.034-0.007-0.066-0.018-0.096l0.001 0.002c-0.008-0.025-0.024-0.046-0.044-0.061l-0-0c-0.019-0.015-0.045-0.022-0.077-0.022-0.015 0-0.032 0.001-0.051 0.003-0.018 0.001-0.036 0.005-0.054 0.013l-0.075 0.192h-0.042c-0.011-0.032-0.020-0.065-0.029-0.099-0.007-0.029-0.012-0.063-0.014-0.099l-0-0.002c0.039-0.024 0.083-0.043 0.131-0.057l0.004-0.001c0.048-0.013 0.103-0.021 0.16-0.021 0.002 0 0.005 0 0.007 0h-0c0.054 0 0.098 0.008 0.13 0.024 0.033 0.015 0.058 0.035 0.075 0.059s0.028 0.052 0.034 0.082c0.005 0.030 0.008 0.060 0.008 0.090 0 0.064-0.002 0.126-0.005 0.186-0.002 0.050-0.003 0.11-0.003 0.169v0zM1.218 9.52c0.027 0 0.050-0.005 0.070-0.016s0.037-0.023 0.051-0.038c0.014-0.015 0.025-0.030 0.034-0.045 0.009-0.016 0.014-0.029 0.018-0.040v-0.168c-0.062 0-0.112 0.003-0.152 0.010s-0.070 0.017-0.093 0.030c-0.021 0.012-0.037 0.030-0.046 0.052l-0 0.001c-0.008 0.020-0.013 0.043-0.013 0.067 0 0.001 0 0.003 0 0.004v-0c0 0.046 0.012 0.082 0.035 0.107 0.024 0.025 0.056 0.037 0.096 0.037zM2.15 9.418c0-0.001 0-0.002 0-0.003 0-0.028-0.011-0.053-0.029-0.072l0 0c-0.020-0.023-0.043-0.043-0.069-0.058l-0.001-0.001c-0.024-0.016-0.055-0.033-0.086-0.050l-0.007-0.003c-0.035-0.019-0.065-0.038-0.093-0.060l0.001 0.001c-0.028-0.023-0.052-0.049-0.071-0.079l-0.001-0.001c-0.018-0.030-0.027-0.067-0.027-0.11 0-0.029 0.006-0.055 0.019-0.080 0.014-0.025 0.032-0.046 0.054-0.062l0-0c0.022-0.018 0.048-0.032 0.078-0.042 0.028-0.010 0.060-0.016 0.094-0.016 0.001 0 0.001 0 0.002 0h-0c0.058 0 0.104 0.003 0.141 0.010s0.073 0.015 0.107 0.027c-0.004 0.034-0.010 0.069-0.016 0.104-0.007 0.041-0.015 0.077-0.026 0.111l0.002-0.006h-0.040l-0.061-0.163c-0.013-0.005-0.027-0.009-0.043-0.010h-0c-0.015-0.002-0.032-0.003-0.049-0.003-0 0-0.001 0-0.001 0h0c-0.001 0-0.001-0-0.002-0-0.018 0-0.035 0.004-0.050 0.011l0.001-0c-0.014 0.007-0.026 0.015-0.037 0.026v0c-0.010 0.011-0.017 0.023-0.022 0.037s-0.008 0.028-0.008 0.042c0 0.029 0.009 0.054 0.027 0.075 0.019 0.020 0.043 0.039 0.072 0.058 0.029 0.017 0.059 0.034 0.091 0.051 0.033 0.017 0.064 0.036 0.093 0.058s0.052 0.046 0.070 0.075c0.019 0.028 0.029 0.061 0.029 0.101 0 0.036-0.008 0.069-0.024 0.098-0.015 0.029-0.036 0.053-0.064 0.074s-0.058 0.036-0.092 0.046l-0.002 0.001c-0.035 0.012-0.073 0.018-0.114 0.018-0.001 0-0.003 0-0.005 0-0.043 0-0.085-0.005-0.125-0.014l0.004 0.001c-0.047-0.009-0.087-0.021-0.126-0.035l0.006 0.002c0.005-0.078 0.020-0.151 0.045-0.22l-0.002 0.005h0.040l0.070 0.174c0.012 0.008 0.026 0.014 0.041 0.014h0c0.017 0.001 0.032 0.002 0.046 0.002 0.047 0 0.085-0.013 0.114-0.038s0.043-0.057 0.043-0.093zM3.282 9.6h-0.346v-0.040c0.026-0.014 0.058-0.027 0.096-0.038v-0.374c0-0.083-0.012-0.148-0.035-0.195-0.023-0.048-0.066-0.072-0.128-0.072-0.028 0-0.053 0.005-0.075 0.016s-0.043 0.023-0.061 0.039l0-0c-0.018 0.016-0.034 0.035-0.046 0.056-0.012 0.018-0.022 0.040-0.028 0.062l-0 0.002v0.467c0.017 0.004 0.033 0.009 0.048 0.014 0.016 0.005 0.032 0.013 0.046 0.024v0.040h-0.344v-0.040c0.033-0.017 0.068-0.030 0.106-0.038v-1.013l-0.122-0.013v-0.042c0.031-0.013 0.067-0.024 0.107-0.034 0.025-0.007 0.065-0.015 0.106-0.022l0.013-0.002h0.040v0.565h0.002c0.023-0.051 0.055-0.094 0.095-0.128l0.001-0c0.043-0.035 0.094-0.053 0.154-0.053 0.043 0 0.081 0.005 0.114 0.016 0.034 0.010 0.062 0.027 0.085 0.053s0.040 0.060 0.051 0.104c0.012 0.043 0.018 0.097 0.018 0.163v0.405c0.018 0.004 0.036 0.009 0.054 0.014s0.035 0.013 0.051 0.024v0.040zM3.73 9.6h-0.355v-0.040c0.016-0.009 0.033-0.015 0.050-0.021 0.017-0.006 0.036-0.012 0.056-0.018v-0.629l-0.106-0.013v-0.042c0.031-0.013 0.065-0.024 0.101-0.034 0.027-0.008 0.063-0.016 0.101-0.023l0.008-0.001h0.040v0.741c0.021 0.005 0.041 0.011 0.058 0.018 0.017 0.005 0.033 0.012 0.048 0.021v0.040zM3.45 8.528c0-0.029 0.009-0.052 0.027-0.069 0.019-0.017 0.044-0.026 0.075-0.026s0.055 0.009 0.074 0.026c0.018 0.017 0.027 0.040 0.027 0.069s-0.009 0.052-0.027 0.069c-0.018 0.016-0.043 0.024-0.074 0.024s-0.056-0.008-0.075-0.024c-0.018-0.017-0.027-0.040-0.027-0.069zM3.856 9.2c0-0.067 0.009-0.126 0.026-0.178 0.018-0.052 0.044-0.096 0.077-0.131 0.033-0.036 0.073-0.063 0.118-0.082 0.047-0.019 0.099-0.029 0.155-0.029 0.066 0 0.123 0.010 0.171 0.030s0.087 0.049 0.117 0.086c0.031 0.036 0.053 0.080 0.067 0.131 0.015 0.051 0.022 0.108 0.022 0.171 0 0.134-0.034 0.238-0.102 0.31s-0.16 0.109-0.275 0.109c-0.064 0-0.119-0.010-0.166-0.029s-0.085-0.049-0.116-0.084l-0-0c-0.031-0.037-0.055-0.082-0.070-0.13l-0.001-0.003c-0.014-0.050-0.022-0.107-0.022-0.166 0-0.002 0-0.005 0-0.007v0zM4.010 9.2c0 0.048 0.004 0.093 0.013 0.136s0.024 0.080 0.043 0.112c0.020 0.031 0.046 0.055 0.078 0.074s0.070 0.027 0.115 0.027c0.058 0 0.105-0.028 0.141-0.085 0.037-0.057 0.056-0.145 0.056-0.264 0-0.049-0.005-0.094-0.014-0.136-0.008-0.042-0.022-0.079-0.042-0.112l0.001 0.001c-0.019-0.032-0.044-0.057-0.074-0.075s-0.066-0.027-0.107-0.027c-0.063 0-0.114 0.028-0.152 0.085s-0.058 0.145-0.058 0.264zM5.598 9.6h-0.344v-0.040c0.027-0.014 0.058-0.027 0.090-0.037l0.004-0.001v-0.379c0-0.081-0.012-0.145-0.035-0.192s-0.066-0.070-0.128-0.070c-0 0-0.001 0-0.001 0-0.027 0-0.052 0.005-0.075 0.015l0.001-0c-0.022 0.010-0.043 0.023-0.061 0.040-0.017 0.016-0.032 0.035-0.045 0.056-0.013 0.020-0.023 0.042-0.030 0.064v0.467c0.033 0.006 0.065 0.019 0.096 0.038v0.040h-0.346v-0.040c0.027-0.014 0.062-0.027 0.106-0.038v-0.629l-0.106-0.013v-0.042c0.028-0.012 0.060-0.022 0.096-0.032s0.074-0.018 0.114-0.026h0.040v0.179h0.002c0.022-0.049 0.054-0.091 0.096-0.126 0.043-0.035 0.094-0.053 0.154-0.053 0.043 0 0.081 0.005 0.114 0.016 0.034 0.010 0.062 0.027 0.085 0.053s0.040 0.060 0.051 0.104c0.012 0.043 0.018 0.097 0.018 0.163v0.405c0.043 0.007 0.078 0.020 0.106 0.038v0.040zM0.24 15.090c0.013 0.013 0.029 0.024 0.050 0.034 0.020 0.009 0.051 0.013 0.091 0.013 0.034 0 0.066-0.004 0.096-0.013s0.055-0.023 0.077-0.040c0.022-0.018 0.040-0.039 0.053-0.064 0.013-0.026 0.019-0.054 0.019-0.086 0-0.043-0.013-0.078-0.040-0.107-0.028-0.030-0.060-0.056-0.096-0.076l-0.002-0.001c-0.033-0.020-0.074-0.042-0.117-0.062l-0.009-0.004c-0.049-0.023-0.091-0.048-0.13-0.077l0.002 0.002c-0.038-0.030-0.070-0.065-0.097-0.104l-0.001-0.002c-0.026-0.042-0.038-0.093-0.038-0.155 0-0.045 0.008-0.085 0.024-0.12s0.038-0.065 0.067-0.090c0.030-0.024 0.065-0.043 0.103-0.055l0.002-0.001c0.039-0.013 0.084-0.021 0.131-0.021 0.002 0 0.004 0 0.006 0h-0c0.065 0 0.124 0.005 0.178 0.016 0.054 0.010 0.097 0.022 0.128 0.037 0 0.018-0.002 0.039-0.005 0.064-0.003 0.030-0.006 0.055-0.010 0.080l0.001-0.006c-0.006 0.054-0.015 0.1-0.026 0.146l0.002-0.009h-0.042l-0.064-0.219c-0.021-0.009-0.046-0.016-0.072-0.019l-0.001-0c-0.027-0.004-0.058-0.006-0.090-0.006-0.001 0-0.002 0-0.003 0h0c-0.054 0-0.098 0.015-0.131 0.046-0.033 0.030-0.050 0.072-0.050 0.126 0 0.044 0.013 0.081 0.038 0.11 0.027 0.030 0.060 0.057 0.099 0.080s0.082 0.046 0.126 0.069c0.046 0.021 0.089 0.046 0.128 0.075s0.072 0.063 0.098 0.102c0.027 0.039 0.040 0.089 0.040 0.147 0 0.048-0.009 0.092-0.027 0.131s-0.042 0.073-0.075 0.101c-0.033 0.028-0.074 0.049-0.122 0.064s-0.102 0.022-0.163 0.022c-0.067 0-0.127-0.008-0.181-0.024s-0.091-0.033-0.114-0.051c0.001-0.018 0.003-0.040 0.005-0.066l0.010-0.078c0.004-0.028 0.009-0.054 0.013-0.080 0.005-0.029 0.009-0.051 0.014-0.073l-0.001 0.007h0.042l0.066 0.235zM0.882 14.438c0.037-0.024 0.079-0.043 0.125-0.054l0.003-0.001v-0.136c0.014-0.012 0.030-0.022 0.048-0.030 0.019-0.010 0.038-0.019 0.056-0.027h0.040v0.21h0.24v0.080h-0.24v0.464c0 0.064 0.010 0.109 0.030 0.136s0.051 0.040 0.091 0.040c0.019 0 0.043-0.001 0.072-0.003 0.029-0.003 0.053-0.009 0.074-0.016l0.011 0.024c-0.011 0.011-0.023 0.021-0.036 0.030l-0.001 0c-0.015 0.011-0.033 0.021-0.053 0.030-0.018 0.009-0.039 0.017-0.062 0.023l-0.002 0.001c-0.022 0.006-0.046 0.010-0.072 0.010-0 0-0 0-0 0h0c-0.064 0-0.113-0.018-0.147-0.054s-0.050-0.095-0.050-0.176v-0.509h-0.128v-0.042zM1.517 14.48c-0.017-0.005-0.032-0.010-0.047-0.017l0.002 0.001c-0.016-0.008-0.029-0.016-0.042-0.024l0.002 0.001v-0.042h0.335v0.040c-0.022 0.015-0.053 0.028-0.091 0.040l0.205 0.474 0.030 0.099h0.003l0.024-0.101 0.152-0.472c-0.034-0.007-0.063-0.020-0.089-0.039l0.001 0v-0.042h0.274v0.042c-0.022 0.015-0.053 0.028-0.091 0.038l-0.25 0.72c-0.023 0.065-0.048 0.119-0.077 0.171l0.003-0.006c-0.019 0.039-0.042 0.072-0.069 0.101l0-0c-0.019 0.022-0.043 0.040-0.069 0.052l-0.001 0.001c-0.024 0.012-0.049 0.020-0.077 0.026-0.011-0.019-0.022-0.041-0.031-0.064l-0.001-0.003c-0.009-0.025-0.016-0.048-0.022-0.070l0.021-0.038h0.166c0.006-0.009 0.012-0.017 0.016-0.026 0.005-0.007 0.011-0.017 0.016-0.029s0.011-0.027 0.018-0.045c0.006-0.018 0.014-0.041 0.022-0.069l-0.333-0.72zM2.679 15.2h-0.355v-0.040c0.035-0.017 0.070-0.030 0.106-0.038v-1.013l-0.122-0.013v-0.042c0.028-0.013 0.062-0.024 0.104-0.034s0.082-0.018 0.122-0.024h0.040v1.125c0.035 0.009 0.070 0.021 0.106 0.038v0.040zM3.453 15.088c-0.010 0.020-0.024 0.037-0.040 0.051l-0 0c-0.018 0.016-0.039 0.030-0.062 0.042s-0.049 0.021-0.077 0.027c-0.028 0.007-0.056 0.011-0.085 0.011-0.063 0-0.118-0.010-0.166-0.029s-0.087-0.049-0.12-0.085l-0-0c-0.032-0.037-0.057-0.082-0.073-0.13l-0.001-0.003c-0.015-0.049-0.024-0.106-0.024-0.165 0-0.003 0-0.005 0-0.008v0c0-0.137 0.031-0.241 0.094-0.312s0.152-0.107 0.267-0.107c0.037 0 0.074 0.005 0.11 0.016 0.075 0.020 0.135 0.073 0.164 0.142l0.001 0.002c0.018 0.038 0.027 0.086 0.027 0.144 0 0.018-0.001 0.037-0.003 0.056-0.001 0.018-0.004 0.038-0.008 0.059h-0.499c0 0.045 0.005 0.087 0.016 0.126 0.012 0.038 0.029 0.072 0.051 0.101s0.051 0.052 0.085 0.069c0.034 0.016 0.074 0.024 0.12 0.024 0.037 0 0.075-0.005 0.114-0.016s0.067-0.025 0.086-0.042l0.022 0.026zM3.16 14.451c-0.061 0-0.107 0.021-0.139 0.062-0.032 0.041-0.051 0.113-0.058 0.216h0.352c0.001-0.010 0.002-0.019 0.002-0.027 0.001-0.010 0.002-0.019 0.002-0.027 0-0.068-0.013-0.123-0.038-0.163s-0.066-0.061-0.12-0.061zM4.797 15.003c-0.032-0.029-0.067-0.062-0.106-0.101-0.069-0.073-0.137-0.15-0.201-0.23l-0.006-0.007c-0.021-0.026-0.045-0.056-0.067-0.087l-0.004-0.005c-0.046 0.045-0.079 0.089-0.099 0.131-0.020 0.042-0.030 0.091-0.030 0.147 0 0.041 0.006 0.078 0.019 0.114 0.014 0.034 0.033 0.064 0.056 0.090s0.052 0.046 0.085 0.061c0.033 0.014 0.069 0.021 0.107 0.021 0.048 0 0.093-0.011 0.134-0.032 0.042-0.022 0.078-0.056 0.11-0.101zM4.384 14.267c0 0.019 0.004 0.040 0.011 0.062 0.007 0.021 0.017 0.043 0.029 0.064 0.013 0.021 0.026 0.042 0.040 0.062s0.029 0.038 0.043 0.054c0.038-0.032 0.069-0.069 0.093-0.11 0.025-0.043 0.034-0.093 0.029-0.15-0.001-0.033-0.013-0.063-0.032-0.087l0 0c-0.019-0.023-0.050-0.035-0.091-0.035-0.023 0-0.043 0.004-0.059 0.013-0.015 0.008-0.027 0.018-0.037 0.032l-0 0c-0.009 0.013-0.017 0.028-0.021 0.044l-0 0.001c-0.003 0.015-0.005 0.032-0.005 0.049 0 0 0 0 0 0.001v-0zM5.048 15.2c-0.015-0.010-0.042-0.028-0.070-0.046l-0.015-0.009c-0.042-0.029-0.078-0.059-0.112-0.093v0c-0.015 0.020-0.034 0.041-0.056 0.061s-0.050 0.037-0.078 0.052l-0.002 0.001c-0.030 0.016-0.063 0.029-0.101 0.038-0.035 0.009-0.076 0.014-0.118 0.014-0.001 0-0.003 0-0.004-0h0c-0.057 0-0.108-0.009-0.154-0.026s-0.084-0.040-0.117-0.069l0 0c-0.032-0.029-0.057-0.062-0.075-0.099-0.016-0.034-0.026-0.074-0.026-0.117 0-0 0-0 0-0v0c0-0.052 0.010-0.099 0.029-0.141s0.042-0.079 0.069-0.11c0.027-0.032 0.054-0.059 0.083-0.080 0.029-0.022 0.053-0.041 0.072-0.054-0.031-0.034-0.057-0.074-0.077-0.117l-0.001-0.003c-0.021-0.046-0.032-0.089-0.032-0.128 0-0.027 0.005-0.053 0.016-0.078 0.011-0.027 0.026-0.050 0.046-0.069 0.021-0.020 0.047-0.036 0.077-0.048s0.064-0.019 0.1-0.019c0.001 0 0.003 0 0.004 0h-0c0.070 0 0.127 0.015 0.17 0.046 0.044 0.030 0.066 0.074 0.066 0.131 0 0.035-0.006 0.068-0.019 0.099s-0.028 0.059-0.047 0.084l0.001-0.001c-0.020 0.026-0.041 0.049-0.065 0.070l-0.001 0c-0.023 0.021-0.047 0.041-0.070 0.059 0.044 0.054 0.094 0.11 0.152 0.168s0.117 0.114 0.178 0.169l0.004 0.004c0.011-0.017 0.022-0.036 0.031-0.057l0.001-0.002c0.013-0.028 0.025-0.060 0.035-0.098 0.011-0.034 0.021-0.075 0.027-0.117l0-0.004c0.005-0.028 0.008-0.060 0.008-0.093 0-0.014-0-0.028-0.002-0.042l0 0.002c-0.036-0.008-0.067-0.021-0.096-0.039l0.001 0.001v-0.042h0.325v0.042c-0.030 0.019-0.066 0.032-0.104 0.038l-0.002 0c-0.010 0.063-0.022 0.12-0.037 0.171s-0.030 0.097-0.046 0.136c-0.017 0.041-0.032 0.073-0.049 0.105l0.003-0.006c-0.014 0.027-0.025 0.046-0.034 0.059 0.041 0.033 0.080 0.064 0.118 0.093 0.039 0.028 0.083 0.055 0.131 0.083l0.088 0.038v0.040h-0.227zM6.396 15.088c-0.019 0.037-0.051 0.069-0.094 0.094-0.043 0.025-0.093 0.037-0.15 0.037-0.063 0-0.118-0.010-0.165-0.029-0.046-0.020-0.084-0.049-0.115-0.084l-0-0c-0.031-0.037-0.055-0.082-0.070-0.13l-0.001-0.003c-0.014-0.050-0.022-0.107-0.022-0.166 0-0.002 0-0.005 0-0.007v0c0-0.135 0.033-0.239 0.099-0.31 0.066-0.073 0.156-0.109 0.27-0.109 0.052 0 0.099 0.005 0.139 0.014 0.042 0.009 0.077 0.020 0.106 0.035-0.005 0.046-0.011 0.086-0.019 0.126l0.001-0.008c-0.008 0.044-0.019 0.080-0.032 0.109h-0.043l-0.067-0.19c-0.007-0.005-0.016-0.009-0.025-0.011l-0-0c-0.012-0.003-0.026-0.005-0.041-0.005-0.003 0-0.005 0-0.008 0h0c-0.072 0-0.128 0.027-0.168 0.080-0.039 0.052-0.059 0.141-0.059 0.267 0 0.041 0.005 0.080 0.016 0.118 0.012 0.038 0.029 0.073 0.051 0.104 0.024 0.030 0.052 0.054 0.086 0.072 0.035 0.018 0.076 0.027 0.122 0.027 0.037 0 0.070-0.005 0.098-0.016s0.051-0.023 0.070-0.038l0.021 0.022zM6.879 15.2h-0.355v-0.040c0.035-0.017 0.070-0.030 0.106-0.038v-1.013l-0.122-0.013v-0.042c0.028-0.013 0.062-0.024 0.104-0.034s0.082-0.018 0.122-0.024h0.040v1.125c0.035 0.009 0.070 0.021 0.106 0.038v0.040zM7.005 14.8c0-0.067 0.009-0.126 0.026-0.178s0.043-0.095 0.077-0.131l-0 0c0.033-0.036 0.073-0.063 0.118-0.082 0.047-0.019 0.099-0.029 0.155-0.029 0.066 0 0.123 0.010 0.171 0.030s0.087 0.049 0.117 0.086c0.031 0.036 0.053 0.080 0.067 0.131s0.022 0.108 0.022 0.171c0 0.134-0.034 0.238-0.102 0.31s-0.16 0.109-0.275 0.109c-0.064 0-0.12-0.010-0.166-0.029s-0.085-0.049-0.116-0.084l-0-0c-0.031-0.037-0.055-0.082-0.070-0.13l-0.001-0.003c-0.014-0.050-0.022-0.107-0.022-0.166 0-0.002 0-0.005 0-0.007v0zM7.158 14.8c0 0.048 0.004 0.093 0.013 0.136s0.024 0.080 0.043 0.112c0.020 0.031 0.046 0.055 0.078 0.074s0.070 0.027 0.115 0.027c0.058 0 0.105-0.028 0.141-0.085 0.037-0.057 0.056-0.145 0.056-0.264 0-0.049-0.005-0.094-0.014-0.136-0.008-0.042-0.022-0.079-0.042-0.112l0.001 0.001c-0.018-0.031-0.043-0.056-0.073-0.075l-0.001-0.001c-0.030-0.018-0.066-0.027-0.107-0.027-0.063 0-0.114 0.028-0.152 0.085s-0.058 0.145-0.058 0.264zM7.83 14.438c0.037-0.024 0.079-0.043 0.125-0.054l0.003-0.001v-0.136c0.014-0.012 0.030-0.022 0.048-0.030 0.019-0.010 0.038-0.019 0.056-0.027h0.040v0.21h0.24v0.080h-0.24v0.464c0 0.064 0.010 0.109 0.030 0.136s0.051 0.040 0.091 0.040c0.019 0 0.043-0.001 0.072-0.003 0.029-0.003 0.053-0.009 0.074-0.016l0.011 0.024c-0.011 0.011-0.023 0.021-0.036 0.030l-0.001 0c-0.015 0.011-0.033 0.021-0.053 0.030-0.018 0.009-0.039 0.017-0.062 0.023l-0.002 0.001c-0.021 0.006-0.046 0.010-0.072 0.010-0 0-0 0-0 0h0c-0.064 0-0.113-0.018-0.147-0.054s-0.050-0.095-0.050-0.176v-0.509h-0.128v-0.042zM9.312 15.2h-0.346v-0.040c0.027-0.014 0.059-0.028 0.092-0.037l0.004-0.001v-0.374c0-0.083-0.012-0.148-0.035-0.195-0.023-0.048-0.066-0.072-0.128-0.072-0.028 0-0.053 0.005-0.075 0.016s-0.043 0.023-0.061 0.039l0-0c-0.018 0.016-0.034 0.035-0.046 0.056-0.012 0.018-0.022 0.040-0.028 0.062l-0 0.002v0.467c0.017 0.004 0.033 0.009 0.048 0.014 0.016 0.005 0.031 0.013 0.046 0.024v0.040h-0.344v-0.040c0.030-0.016 0.066-0.029 0.103-0.038l0.003-0.001v-1.013l-0.122-0.013v-0.042c0.031-0.013 0.067-0.024 0.107-0.034 0.042-0.010 0.081-0.018 0.118-0.024h0.040v0.565h0.002c0.022-0.050 0.054-0.093 0.096-0.128 0.043-0.035 0.094-0.053 0.154-0.053 0.043 0 0.081 0.005 0.114 0.016 0.034 0.010 0.062 0.027 0.085 0.053s0.039 0.060 0.051 0.104c0.012 0.043 0.018 0.097 0.018 0.163v0.405c0.018 0.004 0.036 0.009 0.054 0.014s0.035 0.013 0.051 0.024v0.040zM10.053 15.088c-0.010 0.020-0.024 0.037-0.040 0.051l-0 0c-0.018 0.016-0.039 0.030-0.062 0.042s-0.049 0.021-0.077 0.027c-0.028 0.007-0.056 0.011-0.085 0.011-0.063 0-0.118-0.010-0.166-0.029s-0.088-0.049-0.12-0.085l-0-0c-0.032-0.037-0.057-0.082-0.073-0.13l-0.001-0.003c-0.015-0.049-0.024-0.106-0.024-0.165 0-0.003 0-0.005 0-0.008v0c0-0.137 0.031-0.241 0.094-0.312s0.152-0.107 0.267-0.107c0.037 0 0.074 0.005 0.11 0.016 0.075 0.020 0.135 0.073 0.164 0.142l0.001 0.002c0.018 0.038 0.027 0.086 0.027 0.144 0 0.018-0.001 0.037-0.003 0.056-0.001 0.018-0.004 0.038-0.008 0.059h-0.499c0 0.045 0.005 0.087 0.016 0.126 0.012 0.038 0.029 0.072 0.051 0.101s0.051 0.052 0.085 0.069c0.034 0.016 0.074 0.024 0.12 0.024 0.037 0 0.075-0.005 0.114-0.016s0.067-0.025 0.086-0.042l0.022 0.026zM9.76 14.451c-0.061 0-0.107 0.021-0.139 0.062-0.032 0.041-0.051 0.113-0.058 0.216h0.352c0.001-0.010 0.002-0.019 0.002-0.027 0.001-0.010 0.002-0.019 0.002-0.027 0-0.068-0.013-0.123-0.038-0.163s-0.066-0.061-0.12-0.061zM10.616 15.018c0-0.001 0-0.002 0-0.003 0-0.028-0.011-0.054-0.029-0.072l0 0c-0.020-0.023-0.043-0.043-0.069-0.058l-0.001-0.001c-0.025-0.016-0.055-0.033-0.086-0.050l-0.007-0.003c-0.035-0.019-0.065-0.038-0.093-0.060l0.001 0.001c-0.028-0.023-0.052-0.049-0.071-0.079l-0.001-0.001c-0.018-0.030-0.027-0.067-0.027-0.11 0-0.029 0.006-0.055 0.019-0.080 0.014-0.025 0.032-0.045 0.054-0.062 0.022-0.018 0.048-0.032 0.078-0.042 0.030-0.011 0.062-0.016 0.096-0.016 0.058 0 0.104 0.003 0.141 0.010s0.073 0.015 0.107 0.027c-0.004 0.034-0.010 0.069-0.016 0.104-0.007 0.041-0.015 0.077-0.026 0.111l0.002-0.006h-0.040l-0.061-0.163c-0.013-0.005-0.027-0.009-0.043-0.010h-0c-0.015-0.002-0.031-0.003-0.048-0.003-0 0-0.001 0-0.001 0h0c-0.001 0-0.001-0-0.002-0-0.018 0-0.035 0.004-0.050 0.011l0.001-0c-0.014 0.007-0.026 0.015-0.037 0.026v0c-0.010 0.011-0.017 0.023-0.022 0.037s-0.008 0.028-0.008 0.042c0 0.029 0.009 0.054 0.027 0.075 0.019 0.020 0.043 0.039 0.072 0.058 0.029 0.017 0.059 0.034 0.091 0.051 0.033 0.017 0.064 0.036 0.093 0.058s0.052 0.046 0.070 0.075c0.019 0.028 0.029 0.061 0.029 0.101 0 0.036-0.008 0.069-0.024 0.098s-0.037 0.054-0.063 0.073l-0.001 0c-0.027 0.020-0.058 0.036-0.092 0.046l-0.002 0.001c-0.035 0.012-0.073 0.018-0.114 0.018-0.002 0-0.003 0-0.005 0-0.043 0-0.085-0.005-0.125-0.014l0.004 0.001c-0.047-0.009-0.087-0.021-0.126-0.035l0.006 0.002c0.005-0.078 0.020-0.151 0.045-0.22l-0.002 0.005h0.040l0.070 0.174c0.012 0.008 0.026 0.014 0.041 0.014h0c0.017 0.001 0.032 0.002 0.046 0.002 0.047 0 0.085-0.013 0.114-0.038s0.043-0.057 0.043-0.093zM1.339 20.686h-0.397v-0.046c0.021-0.009 0.043-0.015 0.064-0.021 0.021-0.006 0.043-0.012 0.066-0.018v-0.72l0.006-0.187h-0.013l-0.053 0.171-0.328 0.821h-0.042l-0.312-0.821-0.058-0.187h-0.014l0.002 0.203v0.72c0.047 0.010 0.087 0.023 0.126 0.040l-0.004-0.002v0.046h-0.334v-0.046c0.020-0.009 0.041-0.016 0.062-0.022 0.022-0.007 0.045-0.013 0.067-0.018v-0.947c-0.028-0.005-0.050-0.011-0.073-0.017l0.005 0.001c-0.032-0.011-0.053-0.019-0.074-0.028l0.010 0.004v-0.046h0.328l0.278 0.731 0.054 0.165h0.002l0.054-0.168 0.288-0.728h0.29v0.046c-0.019 0.009-0.039 0.017-0.059 0.024-0.016 0.005-0.037 0.011-0.059 0.015l-0.004 0.001v0.95c0.022 0.004 0.043 0.010 0.062 0.016 0.020 0.005 0.039 0.012 0.058 0.021v0.046zM1.808 20.686h-0.355v-0.040c0.016-0.009 0.032-0.015 0.050-0.021 0.017-0.006 0.036-0.012 0.056-0.018v-0.629l-0.106-0.013v-0.042c0.031-0.013 0.064-0.024 0.101-0.034 0.027-0.008 0.063-0.016 0.101-0.023l0.008-0.001h0.040v0.741c0.021 0.005 0.040 0.011 0.058 0.018 0.017 0.005 0.033 0.012 0.048 0.021v0.040zM1.528 19.614c0-0.029 0.009-0.052 0.027-0.069 0.019-0.017 0.044-0.026 0.075-0.026s0.055 0.009 0.074 0.026c0.018 0.017 0.027 0.040 0.027 0.069s-0.009 0.052-0.027 0.069c-0.018 0.016-0.043 0.024-0.074 0.024s-0.056-0.008-0.075-0.024c-0.018-0.017-0.027-0.040-0.027-0.069zM2.792 20.686h-0.344v-0.040c0.029-0.015 0.060-0.028 0.094-0.038v-0.379c0-0.081-0.012-0.145-0.035-0.192s-0.066-0.070-0.128-0.070c-0 0-0.001 0-0.001 0-0.027 0-0.052 0.005-0.075 0.015l0.001-0c-0.023 0.010-0.044 0.024-0.061 0.040l0-0c-0.017 0.016-0.032 0.035-0.045 0.056-0.013 0.020-0.023 0.042-0.030 0.064v0.467c0.033 0.006 0.065 0.019 0.096 0.038v0.040h-0.346v-0.040c0.027-0.014 0.062-0.027 0.106-0.038v-0.629l-0.106-0.013v-0.042c0.026-0.011 0.058-0.022 0.091-0.031l0.005-0.001c0.036-0.010 0.074-0.018 0.114-0.026h0.040v0.179h0.002c0.022-0.049 0.054-0.091 0.096-0.126 0.043-0.035 0.094-0.053 0.154-0.053 0.043 0 0.080 0.005 0.114 0.016 0.034 0.010 0.062 0.027 0.085 0.053s0.039 0.060 0.051 0.104c0.012 0.043 0.018 0.097 0.018 0.163v0.405c0.043 0.007 0.078 0.020 0.106 0.038v0.040zM3.24 20.686h-0.355v-0.040c0.016-0.009 0.033-0.015 0.050-0.021 0.017-0.006 0.036-0.012 0.056-0.018v-0.629l-0.106-0.013v-0.042c0.031-0.013 0.065-0.024 0.101-0.034s0.073-0.018 0.109-0.024h0.040v0.741c0.021 0.005 0.041 0.011 0.058 0.018 0.017 0.005 0.033 0.012 0.048 0.021v0.040zM2.96 19.614c0-0.029 0.009-0.052 0.027-0.069 0.019-0.017 0.044-0.026 0.075-0.026s0.055 0.009 0.074 0.026 0.027 0.040 0.027 0.069-0.009 0.052-0.027 0.069c-0.018 0.016-0.043 0.024-0.074 0.024s-0.056-0.008-0.075-0.024c-0.018-0.017-0.027-0.040-0.027-0.069zM4.177 20.686h-0.342v-0.040c0.011-0.006 0.023-0.013 0.038-0.019 0.016-0.007 0.035-0.014 0.056-0.019v-0.37c0-0.043-0.002-0.081-0.006-0.115-0.002-0.031-0.010-0.060-0.021-0.086l0.001 0.002c-0.009-0.022-0.024-0.040-0.043-0.053l-0-0c-0.019-0.013-0.044-0.019-0.075-0.019-0.023 0-0.045 0.005-0.066 0.014s-0.038 0.023-0.053 0.038l-0 0c-0.015 0.016-0.028 0.034-0.040 0.054-0.010 0.018-0.019 0.039-0.025 0.062l-0.001 0.002v0.47c0.017 0.005 0.033 0.011 0.048 0.018 0.016 0.005 0.031 0.012 0.046 0.021v0.040h-0.344v-0.040c0.015-0.007 0.031-0.014 0.050-0.021s0.037-0.012 0.056-0.018v-0.629l-0.106-0.013v-0.042c0.034-0.015 0.069-0.027 0.104-0.035 0.028-0.008 0.063-0.016 0.1-0.022l0.006-0.001h0.040v0.181h0.002c0.017-0.050 0.046-0.093 0.086-0.128 0.042-0.035 0.093-0.053 0.154-0.053 0.026 0 0.050 0.003 0.074 0.008s0.045 0.015 0.066 0.030c0.020 0.014 0.037 0.034 0.051 0.059s0.024 0.059 0.030 0.099c0.019-0.059 0.050-0.106 0.093-0.142s0.096-0.054 0.16-0.054c0.039 0 0.074 0.005 0.102 0.016 0.030 0.010 0.054 0.027 0.074 0.053s0.033 0.060 0.042 0.104c0.010 0.044 0.014 0.099 0.014 0.166v0.402c0.036 0.006 0.071 0.019 0.106 0.038v0.040h-0.344v-0.040c0.032-0.017 0.063-0.030 0.094-0.038v-0.398c0-0.038-0.002-0.073-0.006-0.102-0.002-0.028-0.010-0.053-0.021-0.076l0.001 0.001c-0.010-0.020-0.025-0.037-0.044-0.048l-0.001-0c-0.019-0.012-0.045-0.018-0.077-0.018-0.051 0-0.091 0.018-0.12 0.053-0.028 0.035-0.048 0.080-0.061 0.134v0.454c0.037 0.011 0.072 0.023 0.104 0.038v0.040zM5.337 20.476c0 0.023 0.001 0.044 0.002 0.061s0.002 0.035 0.003 0.054l0.11 0.016v0.034c-0.025 0.013-0.055 0.026-0.085 0.036l-0.004 0.001c-0.032 0.011-0.063 0.019-0.093 0.024h-0.040c-0.010-0.023-0.017-0.051-0.019-0.079l-0-0.001c-0.002-0.026-0.004-0.060-0.005-0.094l-0-0.004h-0.008c-0.005 0.025-0.014 0.047-0.026 0.067l0.001-0.001c-0.013 0.023-0.029 0.042-0.048 0.057l-0 0c-0.020 0.017-0.042 0.031-0.067 0.041l-0.002 0.001c-0.027 0.011-0.057 0.016-0.091 0.016-0.065 0-0.118-0.020-0.16-0.059-0.041-0.039-0.061-0.091-0.061-0.155 0-0.049 0.010-0.089 0.029-0.12 0.020-0.032 0.050-0.057 0.088-0.075s0.086-0.031 0.142-0.038c0.055-0.009 0.123-0.015 0.192-0.019l0.005-0c0.004-0.046 0.005-0.087 0.003-0.123-0-0.034-0.007-0.066-0.018-0.096l0.001 0.002c-0.008-0.025-0.024-0.046-0.044-0.061l-0-0c-0.019-0.015-0.045-0.022-0.077-0.022-0.015 0-0.032 0.001-0.051 0.003s-0.038 0.006-0.056 0.013l0.001-0-0.075 0.192h-0.042c-0.008-0.023-0.018-0.056-0.027-0.090l-0.002-0.009c-0.007-0.029-0.012-0.063-0.014-0.099l-0-0.002c0.039-0.024 0.083-0.043 0.131-0.057l0.004-0.001c0.048-0.013 0.103-0.021 0.16-0.021 0.002 0 0.005 0 0.007 0h-0c0.054 0 0.098 0.008 0.13 0.024 0.033 0.015 0.058 0.035 0.075 0.059s0.028 0.052 0.034 0.082 0.008 0.060 0.008 0.090c0 0.064-0.002 0.126-0.005 0.186-0.002 0.050-0.003 0.11-0.003 0.169v0zM5.028 20.606c0.027 0 0.050-0.005 0.070-0.016s0.037-0.023 0.051-0.038c0.013-0.013 0.024-0.028 0.033-0.044l0.001-0.001c0.006-0.011 0.012-0.025 0.017-0.038l0-0.002v-0.168c-0.062 0-0.113 0.003-0.152 0.010s-0.070 0.017-0.093 0.030c-0.021 0.012-0.037 0.030-0.046 0.052l-0 0.001c-0.008 0.020-0.013 0.043-0.013 0.067 0 0.001 0 0.003 0 0.004v-0c0 0.046 0.012 0.082 0.035 0.107 0.023 0.025 0.055 0.037 0.096 0.037zM5.91 20.686h-0.355v-0.040c0.035-0.017 0.070-0.030 0.106-0.038v-1.013l-0.122-0.013v-0.042c0.028-0.013 0.062-0.024 0.104-0.034 0.028-0.007 0.069-0.015 0.111-0.022l0.011-0.002h0.040v1.125c0.035 0.009 0.070 0.021 0.106 0.038v0.040zM6.391 20.686h-0.355v-0.040c0.016-0.009 0.033-0.015 0.050-0.021 0.017-0.006 0.036-0.012 0.056-0.018v-0.629l-0.106-0.013v-0.042c0.031-0.013 0.065-0.024 0.101-0.034 0.027-0.008 0.063-0.016 0.101-0.023l0.008-0.001h0.040v0.741c0.021 0.005 0.041 0.011 0.058 0.018 0.017 0.005 0.033 0.012 0.048 0.021v0.040zM6.111 19.614c0-0.029 0.009-0.052 0.027-0.069 0.019-0.017 0.044-0.026 0.075-0.026s0.056 0.009 0.074 0.026c0.018 0.017 0.027 0.040 0.027 0.069s-0.009 0.052-0.027 0.069c-0.018 0.016-0.043 0.024-0.074 0.024s-0.056-0.008-0.075-0.024c-0.018-0.017-0.027-0.040-0.027-0.069zM6.924 20.503c0-0.001 0-0.002 0-0.003 0-0.028-0.011-0.054-0.029-0.073l0 0c-0.020-0.023-0.043-0.043-0.069-0.058l-0.001-0.001c-0.025-0.016-0.055-0.033-0.086-0.050l-0.007-0.003c-0.035-0.019-0.065-0.038-0.093-0.060l0.001 0.001c-0.028-0.023-0.052-0.049-0.071-0.079l-0.001-0.001c-0.018-0.030-0.027-0.067-0.027-0.11 0-0.029 0.006-0.055 0.019-0.080 0.014-0.025 0.032-0.045 0.054-0.062 0.022-0.018 0.049-0.032 0.078-0.042 0.030-0.011 0.062-0.016 0.096-0.016 0.058 0 0.105 0.003 0.141 0.010 0.037 0.006 0.073 0.015 0.107 0.027-0.004 0.034-0.010 0.069-0.016 0.104-0.007 0.041-0.015 0.077-0.026 0.111l0.002-0.006h-0.040l-0.061-0.163c-0.013-0.005-0.027-0.009-0.043-0.010h-0c-0.015-0.002-0.031-0.003-0.048-0.003-0 0-0.001 0-0.001 0h0c-0.001 0-0.001-0-0.002-0-0.018 0-0.035 0.004-0.050 0.012l0.001-0c-0.014 0.007-0.026 0.015-0.037 0.026v0c-0.010 0.011-0.017 0.023-0.022 0.037s-0.008 0.028-0.008 0.042c0 0.029 0.009 0.054 0.027 0.075 0.019 0.020 0.043 0.039 0.072 0.058 0.029 0.017 0.059 0.034 0.091 0.051 0.033 0.017 0.064 0.036 0.093 0.058s0.052 0.046 0.070 0.075c0.019 0.028 0.029 0.061 0.029 0.101 0 0.036-0.008 0.069-0.024 0.098-0.015 0.029-0.036 0.053-0.064 0.074s-0.058 0.036-0.092 0.046l-0.002 0c-0.035 0.012-0.073 0.018-0.114 0.018-0.002 0-0.003 0-0.005 0-0.043 0-0.085-0.005-0.125-0.014l0.004 0.001c-0.047-0.009-0.087-0.021-0.126-0.035l0.006 0.002c0.005-0.078 0.020-0.151 0.045-0.22l-0.002 0.005h0.040l0.070 0.174c0.012 0.008 0.026 0.014 0.041 0.014h0c0.017 0.001 0.033 0.002 0.046 0.002 0.047 0 0.085-0.013 0.114-0.038s0.043-0.057 0.043-0.093zM8.021 20.686h-0.342v-0.040c0.011-0.006 0.023-0.013 0.038-0.019 0.016-0.007 0.035-0.014 0.056-0.019v-0.37c0-0.043-0.002-0.081-0.006-0.115-0.002-0.031-0.010-0.060-0.021-0.086l0.001 0.002c-0.009-0.022-0.024-0.040-0.043-0.053l-0-0c-0.019-0.013-0.044-0.019-0.075-0.019-0.024 0-0.045 0.005-0.066 0.014s-0.038 0.023-0.053 0.038l-0 0c-0.015 0.016-0.028 0.034-0.040 0.054-0.010 0.018-0.019 0.039-0.025 0.062l-0.001 0.002v0.47c0.017 0.005 0.033 0.011 0.048 0.018 0.016 0.005 0.031 0.012 0.046 0.021v0.040h-0.344v-0.040c0.015-0.007 0.031-0.014 0.050-0.021s0.037-0.012 0.056-0.018v-0.629l-0.106-0.013v-0.042c0.034-0.015 0.069-0.027 0.104-0.035 0.028-0.008 0.063-0.016 0.1-0.022l0.006-0.001h0.040v0.181h0.002c0.017-0.050 0.046-0.093 0.086-0.128 0.042-0.035 0.093-0.053 0.154-0.053 0.026 0 0.050 0.003 0.074 0.008s0.045 0.015 0.066 0.030c0.020 0.014 0.037 0.034 0.051 0.059s0.024 0.059 0.030 0.099c0.019-0.059 0.050-0.106 0.093-0.142s0.096-0.054 0.16-0.054c0.039 0 0.074 0.005 0.102 0.016 0.030 0.010 0.054 0.027 0.074 0.053s0.033 0.060 0.042 0.104c0.010 0.044 0.014 0.099 0.014 0.166v0.402c0.036 0.006 0.071 0.019 0.106 0.038v0.040h-0.344v-0.040c0.032-0.017 0.063-0.030 0.094-0.038v-0.398c0-0.038-0.002-0.073-0.006-0.102-0.002-0.028-0.010-0.053-0.021-0.076l0.001 0.001c-0.010-0.020-0.025-0.037-0.044-0.048l-0.001-0c-0.019-0.012-0.045-0.018-0.077-0.018-0.051 0-0.091 0.018-0.12 0.053-0.028 0.035-0.048 0.080-0.061 0.134v0.454c0.037 0.011 0.072 0.023 0.104 0.038v0.040zM0.046 26.171v-0.046c0.038-0.019 0.082-0.032 0.129-0.038l0.002-0v-0.949c-0.028-0.006-0.050-0.011-0.071-0.017l0.006 0.001c-0.030-0.010-0.052-0.018-0.073-0.027l0.008 0.003v-0.046h0.17c0.020 0 0.039-0.001 0.058-0.002l0.059-0.003 0.066-0.003c0.023-0.001 0.050-0.002 0.080-0.002 0.043 0 0.086 0.004 0.13 0.011 0.045 0.006 0.085 0.019 0.12 0.038 0.036 0.019 0.066 0.046 0.088 0.082 0.022 0.034 0.034 0.079 0.034 0.134 0 0.028-0.004 0.055-0.013 0.083-0.019 0.059-0.056 0.107-0.105 0.14l-0.001 0.001c-0.027 0.018-0.059 0.032-0.093 0.040l-0.002 0v0.006c0.032 0.005 0.063 0.014 0.094 0.027 0.032 0.013 0.060 0.030 0.085 0.053 0.025 0.021 0.044 0.048 0.059 0.080 0.016 0.032 0.024 0.070 0.024 0.115 0 0.058-0.013 0.107-0.038 0.149s-0.060 0.076-0.1 0.102l-0.001 0.001c-0.040 0.026-0.086 0.047-0.136 0.059l-0.003 0.001c-0.052 0.012-0.105 0.018-0.158 0.018-0.037 0-0.079-0.002-0.126-0.005s-0.092-0.005-0.136-0.005h-0.154zM0.474 26.098c0.038 0 0.074-0.006 0.107-0.018 0.034-0.012 0.063-0.028 0.086-0.048 0.025-0.021 0.044-0.046 0.058-0.075 0.014-0.030 0.021-0.062 0.021-0.096 0-0.043-0.009-0.078-0.026-0.106-0.016-0.029-0.039-0.051-0.066-0.067l-0.001-0c-0.028-0.017-0.061-0.029-0.096-0.035l-0.002-0c-0.034-0.006-0.072-0.010-0.112-0.010-0.001 0-0.001 0-0.002 0h-0.12v0.442c0.015 0.004 0.033 0.007 0.053 0.010 0.021 0.002 0.054 0.003 0.099 0.003zM0.402 25.56c0.018 0 0.039-0.001 0.064-0.002 0.026-0.002 0.046-0.004 0.062-0.006 0.049-0.017 0.089-0.044 0.12-0.082 0.032-0.038 0.048-0.083 0.048-0.134 0-0.070-0.021-0.123-0.064-0.158-0.042-0.035-0.098-0.053-0.168-0.053-0.033 0-0.061 0.001-0.085 0.002-0.021 0.001-0.041 0.002-0.061 0.005l0.003-0v0.429h0.080zM1.405 26.171h-0.355v-0.040c0.035-0.017 0.070-0.030 0.106-0.038v-1.013l-0.122-0.013v-0.042c0.028-0.013 0.062-0.024 0.104-0.034 0.028-0.007 0.069-0.015 0.111-0.022l0.011-0.002h0.040v1.125c0.035 0.009 0.070 0.021 0.106 0.038v0.040zM2.122 25.962c0 0.023 0 0.044 0.002 0.061s0.002 0.035 0.003 0.054l0.11 0.016v0.034c-0.025 0.013-0.055 0.026-0.086 0.036l-0.004 0.001c-0.032 0.011-0.063 0.019-0.093 0.024h-0.040c-0.010-0.023-0.017-0.051-0.019-0.079l-0-0.001c-0.002-0.026-0.004-0.060-0.005-0.094l-0-0.004h-0.008c-0.005 0.025-0.014 0.047-0.026 0.067l0.001-0.001c-0.013 0.023-0.029 0.042-0.048 0.057l-0 0c-0.020 0.017-0.042 0.031-0.067 0.041l-0.002 0.001c-0.027 0.011-0.057 0.016-0.091 0.016-0.065 0-0.118-0.020-0.16-0.059-0.040-0.039-0.061-0.091-0.061-0.155 0-0.049 0.010-0.089 0.029-0.12 0.020-0.032 0.050-0.057 0.088-0.075s0.086-0.031 0.142-0.038c0.055-0.009 0.123-0.015 0.192-0.019l0.005-0c0.004-0.046 0.005-0.087 0.003-0.123-0-0.034-0.007-0.066-0.018-0.096l0.001 0.002c-0.008-0.025-0.024-0.046-0.044-0.061l-0-0c-0.019-0.015-0.045-0.022-0.077-0.022-0.015 0-0.032 0.001-0.051 0.003s-0.038 0.006-0.056 0.013l0.001-0-0.075 0.192h-0.042c-0.008-0.023-0.018-0.056-0.027-0.090l-0.002-0.009c-0.007-0.029-0.012-0.063-0.014-0.099l-0-0.002c0.039-0.024 0.083-0.043 0.131-0.057l0.004-0.001c0.048-0.013 0.103-0.021 0.16-0.021 0.002 0 0.004 0 0.007 0h-0c0.054 0 0.098 0.008 0.13 0.024 0.033 0.015 0.058 0.035 0.075 0.059s0.028 0.052 0.034 0.082c0.005 0.030 0.008 0.060 0.008 0.090 0 0.064-0.002 0.126-0.005 0.186-0.002 0.050-0.003 0.11-0.003 0.169v0zM1.813 26.091c0.027 0 0.050-0.005 0.070-0.016s0.037-0.023 0.051-0.038c0.012-0.013 0.024-0.028 0.033-0.044l0.001-0.001c0.006-0.011 0.012-0.025 0.017-0.038l0-0.002v-0.168c-0.062 0-0.112 0.003-0.152 0.010s-0.070 0.017-0.093 0.030c-0.021 0.012-0.037 0.030-0.046 0.052l-0 0.001c-0.008 0.020-0.013 0.043-0.013 0.067 0 0.001 0 0.003 0 0.004v-0c0 0.046 0.012 0.082 0.035 0.107 0.024 0.025 0.056 0.037 0.096 0.037zM2.957 26.059c-0.019 0.037-0.051 0.069-0.094 0.094-0.043 0.025-0.093 0.037-0.15 0.037-0.063 0-0.118-0.010-0.165-0.029-0.046-0.020-0.084-0.049-0.115-0.084l-0-0c-0.031-0.038-0.055-0.082-0.070-0.13l-0.001-0.003c-0.014-0.050-0.022-0.107-0.022-0.166 0-0.002 0-0.005 0-0.007v0c0-0.135 0.033-0.239 0.099-0.31 0.066-0.073 0.156-0.109 0.27-0.109 0.052 0 0.099 0.005 0.139 0.014 0.042 0.009 0.077 0.020 0.106 0.035-0.005 0.046-0.011 0.086-0.019 0.126l0.001-0.008c-0.009 0.044-0.019 0.080-0.032 0.109h-0.043l-0.067-0.19c-0.007-0.005-0.016-0.009-0.025-0.011l-0-0c-0.012-0.003-0.026-0.005-0.041-0.005-0.003 0-0.005 0-0.008 0h0c-0.073 0-0.129 0.027-0.168 0.080-0.040 0.052-0.059 0.141-0.059 0.267 0 0.041 0.005 0.080 0.016 0.118s0.029 0.073 0.051 0.104c0.023 0.030 0.052 0.054 0.086 0.072 0.035 0.018 0.076 0.027 0.122 0.027 0.037 0 0.070-0.005 0.098-0.016s0.051-0.023 0.070-0.038l0.021 0.022zM3.499 25.371h0.309v0.042c-0.034 0.015-0.075 0.028-0.117 0.038l-0.005 0.001c-0.016 0.021-0.035 0.044-0.056 0.069-0.020 0.025-0.041 0.049-0.062 0.074s-0.042 0.047-0.062 0.069c-0.019 0.021-0.036 0.039-0.050 0.053 0.016 0.021 0.035 0.047 0.058 0.078l0.075 0.096c0.027 0.034 0.054 0.069 0.082 0.104 0.029 0.035 0.057 0.068 0.085 0.099l0.090 0.038v0.040h-0.198l-0.043-0.038c-0.044-0.053-0.090-0.114-0.134-0.177l-0.007-0.010c-0.014-0.019-0.048-0.069-0.081-0.12l-0.021-0.035-0.053-0.016v0.318c0.035 0.006 0.070 0.019 0.104 0.038v0.040h-0.354v-0.040c0.035-0.017 0.070-0.030 0.106-0.038v-1.013l-0.122-0.013v-0.042c0.030-0.014 0.066-0.025 0.107-0.034s0.081-0.017 0.118-0.024h0.040v0.765h0.042c0.017-0.019 0.036-0.041 0.056-0.064s0.041-0.047 0.061-0.072l0.059-0.075c0.019-0.025 0.037-0.048 0.053-0.070-0.030-0.009-0.056-0.022-0.079-0.039l0.001 0v-0.042zM5.097 25.975c-0.032-0.029-0.067-0.062-0.106-0.101-0.069-0.073-0.137-0.15-0.201-0.23l-0.006-0.007c-0.021-0.026-0.045-0.056-0.067-0.087l-0.004-0.005c-0.046 0.045-0.079 0.089-0.099 0.131-0.020 0.042-0.030 0.091-0.030 0.147 0 0.041 0.006 0.078 0.019 0.114 0.014 0.034 0.033 0.064 0.056 0.090s0.052 0.046 0.085 0.061c0.033 0.014 0.069 0.021 0.107 0.021 0.048 0 0.093-0.011 0.134-0.032 0.042-0.022 0.078-0.056 0.11-0.101zM4.684 25.239c0 0.019 0.004 0.040 0.011 0.062 0.007 0.021 0.017 0.043 0.029 0.064 0.013 0.021 0.026 0.042 0.040 0.062s0.029 0.038 0.043 0.054c0.038-0.032 0.069-0.069 0.093-0.11 0.025-0.043 0.034-0.093 0.029-0.15-0.001-0.033-0.013-0.063-0.032-0.087l0 0c-0.019-0.023-0.050-0.035-0.091-0.035-0.023 0-0.043 0.004-0.059 0.013-0.015 0.008-0.027 0.018-0.037 0.032l-0 0c-0.009 0.013-0.017 0.028-0.021 0.044l-0 0.001c-0.003 0.015-0.005 0.032-0.005 0.049 0 0 0 0 0 0.001v-0zM5.348 26.171c-0.015-0.010-0.042-0.028-0.070-0.046l-0.015-0.009c-0.042-0.029-0.078-0.059-0.112-0.093v0c-0.015 0.020-0.034 0.041-0.056 0.061s-0.050 0.037-0.078 0.052l-0.002 0.001c-0.030 0.016-0.063 0.029-0.101 0.038-0.035 0.009-0.076 0.014-0.118 0.014-0.001 0-0.003 0-0.004-0h0c-0.057 0-0.108-0.009-0.154-0.026s-0.084-0.040-0.117-0.069l0 0c-0.032-0.029-0.057-0.062-0.075-0.099-0.016-0.034-0.026-0.074-0.026-0.116 0-0 0-0 0-0v0c0-0.052 0.010-0.099 0.029-0.141 0.019-0.043 0.042-0.079 0.069-0.11 0.027-0.032 0.054-0.059 0.083-0.080 0.029-0.022 0.053-0.041 0.072-0.054-0.031-0.034-0.057-0.074-0.077-0.117l-0.001-0.003c-0.021-0.046-0.032-0.089-0.032-0.128 0-0.027 0.005-0.053 0.016-0.078 0.011-0.027 0.026-0.050 0.046-0.069 0.021-0.020 0.047-0.036 0.077-0.048s0.064-0.019 0.1-0.019c0.001 0 0.003 0 0.004 0h-0c0.070 0 0.127 0.015 0.17 0.046 0.044 0.030 0.066 0.074 0.066 0.131 0 0.035-0.006 0.068-0.019 0.099s-0.028 0.059-0.047 0.084l0.001-0.001c-0.020 0.026-0.041 0.049-0.065 0.070l-0.001 0c-0.023 0.021-0.047 0.041-0.070 0.059 0.044 0.054 0.094 0.11 0.152 0.168s0.117 0.114 0.178 0.169l0.004 0.004c0.011-0.017 0.022-0.036 0.031-0.057l0.001-0.002c0.013-0.028 0.025-0.060 0.035-0.098 0.011-0.034 0.021-0.075 0.027-0.117l0-0.004c0.005-0.028 0.008-0.060 0.008-0.093 0-0.014-0-0.028-0.002-0.042l0 0.002c-0.036-0.008-0.067-0.021-0.096-0.039l0.001 0.001v-0.042h0.325v0.042c-0.030 0.019-0.066 0.032-0.104 0.038l-0.002 0c-0.010 0.063-0.022 0.12-0.037 0.171s-0.030 0.097-0.046 0.136c-0.017 0.041-0.032 0.073-0.049 0.105l0.003-0.006c-0.014 0.027-0.025 0.046-0.034 0.059 0.041 0.033 0.080 0.064 0.118 0.093 0.039 0.028 0.083 0.055 0.131 0.083l0.088 0.038v0.040h-0.227zM7.286 25.138c-0.026-0.004-0.049-0.009-0.071-0.015l0.004 0.001c-0.022-0.007-0.046-0.016-0.070-0.026v-0.046h0.358v0.046c-0.036 0.016-0.075 0.029-0.115 0.040l-0.267 1.034-0.099 0.019-0.258-0.87-0.253 0.851-0.098 0.019-0.283-1.053c-0.029-0.007-0.050-0.013-0.070-0.020l0.008 0.002c-0.024-0.008-0.044-0.015-0.063-0.024l0.003 0.001v-0.046h0.416v0.046c-0.020 0.007-0.041 0.015-0.062 0.022-0.016 0.005-0.039 0.011-0.063 0.016l-0.006 0.001 0.158 0.645 0.035 0.208h0.003l0.056-0.211 0.216-0.728h0.054l0.232 0.728 0.046 0.208h0.003l0.037-0.211 0.147-0.638zM8.418 26.171h-0.346v-0.040c0.027-0.014 0.059-0.028 0.092-0.037l0.004-0.001v-0.374c0-0.083-0.012-0.148-0.035-0.195-0.024-0.048-0.066-0.072-0.128-0.072-0.028 0-0.053 0.005-0.075 0.016s-0.043 0.023-0.061 0.039l0-0c-0.018 0.016-0.034 0.035-0.046 0.056-0.012 0.018-0.022 0.040-0.028 0.062l-0 0.002v0.467c0.017 0.004 0.033 0.009 0.048 0.014 0.016 0.005 0.031 0.013 0.046 0.024v0.040h-0.344v-0.040c0.030-0.016 0.066-0.029 0.103-0.038l0.003-0.001v-1.013l-0.122-0.013v-0.042c0.031-0.013 0.067-0.024 0.107-0.034 0.042-0.010 0.081-0.018 0.118-0.024h0.040v0.565h0.002c0.022-0.050 0.054-0.093 0.096-0.128 0.043-0.035 0.094-0.053 0.154-0.053 0.043 0 0.080 0.005 0.114 0.016 0.034 0.010 0.062 0.027 0.085 0.053s0.039 0.060 0.051 0.104c0.012 0.043 0.018 0.097 0.018 0.163v0.405c0.018 0.004 0.036 0.009 0.054 0.014s0.035 0.013 0.051 0.024v0.040zM8.866 26.171h-0.355v-0.040c0.016-0.009 0.032-0.015 0.050-0.021 0.017-0.006 0.036-0.012 0.056-0.018v-0.629l-0.106-0.013v-0.042c0.031-0.013 0.065-0.024 0.101-0.034s0.072-0.018 0.109-0.024h0.040v0.741c0.021 0.005 0.040 0.011 0.058 0.018 0.017 0.005 0.033 0.012 0.048 0.021v0.040zM8.586 25.099c0-0.029 0.009-0.052 0.027-0.069 0.019-0.017 0.044-0.026 0.075-0.026s0.055 0.009 0.073 0.026c0.018 0.017 0.027 0.040 0.027 0.069s-0.009 0.052-0.027 0.069c-0.018 0.016-0.043 0.024-0.074 0.024s-0.056-0.008-0.075-0.024c-0.018-0.017-0.027-0.040-0.027-0.069zM8.95 25.41c0.037-0.024 0.079-0.043 0.125-0.054l0.003-0.001v-0.136c0.014-0.012 0.030-0.022 0.048-0.030 0.019-0.010 0.038-0.019 0.056-0.027h0.040v0.21h0.24v0.080h-0.24v0.464c0 0.064 0.010 0.109 0.030 0.136s0.051 0.040 0.091 0.040c0.019 0 0.043-0.001 0.072-0.003 0.029-0.003 0.053-0.009 0.074-0.016l0.011 0.024c-0.011 0.011-0.023 0.021-0.036 0.030l-0.001 0c-0.015 0.011-0.033 0.021-0.051 0.029l-0.002 0.001c-0.018 0.009-0.039 0.017-0.062 0.023l-0.002 0.001c-0.021 0.006-0.046 0.010-0.072 0.010-0 0-0 0-0 0h0c-0.064 0-0.113-0.018-0.147-0.054-0.033-0.036-0.050-0.095-0.050-0.176v-0.509h-0.128v-0.042zM10.234 26.059c-0.010 0.020-0.024 0.037-0.040 0.051l-0 0c-0.018 0.016-0.039 0.030-0.062 0.042s-0.049 0.021-0.077 0.027c-0.028 0.007-0.056 0.011-0.085 0.011-0.063 0-0.118-0.010-0.166-0.029s-0.088-0.049-0.12-0.084l-0-0c-0.032-0.037-0.057-0.082-0.073-0.13l-0.001-0.003c-0.015-0.049-0.024-0.106-0.024-0.165 0-0.003 0-0.005 0-0.008v0c0-0.137 0.031-0.241 0.094-0.312s0.152-0.107 0.267-0.107c0.037 0 0.074 0.005 0.11 0.016 0.075 0.020 0.135 0.073 0.164 0.142l0.001 0.002c0.018 0.038 0.027 0.086 0.027 0.144 0 0.018-0.001 0.037-0.003 0.056-0.001 0.018-0.004 0.038-0.008 0.059h-0.499c0 0.045 0.005 0.087 0.016 0.126 0.012 0.038 0.029 0.072 0.051 0.101s0.051 0.052 0.085 0.069c0.034 0.016 0.074 0.024 0.12 0.024 0.037 0 0.075-0.005 0.114-0.016s0.067-0.025 0.086-0.042l0.022 0.026zM9.941 25.423c-0.061 0-0.107 0.021-0.139 0.062-0.032 0.041-0.051 0.113-0.058 0.216h0.352c0.001-0.008 0.002-0.018 0.002-0.027v-0c0.001-0.008 0.002-0.018 0.002-0.027v-0c0-0.068-0.013-0.123-0.038-0.163s-0.066-0.061-0.12-0.061zM1.339 31.657h-0.397v-0.046c0.021-0.009 0.043-0.015 0.064-0.021 0.021-0.006 0.043-0.012 0.066-0.018v-0.72l0.006-0.187h-0.013l-0.053 0.171-0.328 0.821h-0.042l-0.312-0.821-0.058-0.187h-0.014l0.002 0.203v0.72c0.047 0.010 0.087 0.023 0.126 0.040l-0.004-0.002v0.046h-0.334v-0.046c0.020-0.009 0.041-0.016 0.062-0.022 0.022-0.007 0.045-0.013 0.067-0.018v-0.947c-0.028-0.005-0.050-0.011-0.073-0.017l0.005 0.001c-0.032-0.011-0.053-0.019-0.074-0.028l0.010 0.004v-0.046h0.328l0.278 0.731 0.054 0.165h0.002l0.054-0.168 0.288-0.728h0.29v0.046c-0.019 0.009-0.039 0.017-0.059 0.024-0.016 0.005-0.037 0.011-0.059 0.015l-0.004 0.001v0.95c0.022 0.004 0.043 0.010 0.062 0.016 0.020 0.005 0.039 0.012 0.058 0.021v0.046zM1.453 31.257c0-0.067 0.008-0.126 0.026-0.178s0.043-0.095 0.077-0.131l-0 0c0.033-0.036 0.072-0.063 0.118-0.082 0.047-0.019 0.099-0.029 0.155-0.029 0.066 0 0.123 0.010 0.171 0.030s0.087 0.049 0.117 0.086c0.031 0.036 0.053 0.080 0.067 0.131s0.022 0.108 0.022 0.171c0 0.134-0.034 0.238-0.102 0.31s-0.16 0.109-0.275 0.109c-0.064 0-0.12-0.010-0.166-0.029s-0.085-0.049-0.116-0.084l-0-0c-0.031-0.038-0.055-0.082-0.070-0.13l-0.001-0.003c-0.014-0.050-0.022-0.107-0.022-0.166 0-0.002 0-0.005 0-0.007v0zM1.607 31.257c0 0.048 0.004 0.093 0.013 0.136 0.010 0.043 0.024 0.080 0.043 0.112 0.020 0.031 0.046 0.055 0.078 0.074s0.070 0.027 0.115 0.027c0.058 0 0.104-0.028 0.141-0.085s0.056-0.145 0.056-0.264c0-0.049-0.005-0.094-0.014-0.136-0.008-0.042-0.022-0.079-0.042-0.112l0.001 0.001c-0.018-0.031-0.043-0.056-0.073-0.075l-0.001-0.001c-0.030-0.018-0.066-0.027-0.107-0.027-0.063 0-0.114 0.028-0.152 0.085s-0.058 0.145-0.058 0.264zM2.869 31.499c-0.006 0.025-0.015 0.048-0.028 0.068l0.001-0.001c-0.013 0.022-0.029 0.041-0.048 0.057l-0 0c-0.018 0.016-0.039 0.029-0.064 0.038-0.023 0.010-0.049 0.014-0.077 0.014-0.106 0-0.185-0.034-0.237-0.101s-0.078-0.172-0.078-0.314c0-0.137 0.033-0.241 0.099-0.312 0.067-0.071 0.157-0.107 0.27-0.107 0.039 0 0.070 0.002 0.093 0.006 0.022 0.003 0.047 0.010 0.074 0.019v-0.302l-0.122-0.013v-0.042c0.031-0.013 0.067-0.024 0.107-0.034 0.042-0.010 0.081-0.018 0.118-0.024h0.040v1.112l0.106 0.013v0.034c-0.031 0.015-0.063 0.028-0.096 0.038s-0.066 0.018-0.098 0.022h-0.040l-0.014-0.174h-0.006zM2.685 31.577c0.052 0 0.094-0.017 0.125-0.050s0.052-0.078 0.064-0.134v-0.451c-0.018-0.011-0.040-0.019-0.063-0.022l-0.001-0c-0.026-0.004-0.056-0.006-0.086-0.006-0.003 0-0.006 0-0.009 0h0c-0.073 0-0.128 0.032-0.166 0.096-0.038 0.063-0.058 0.147-0.058 0.253 0 0.044 0.004 0.085 0.011 0.123s0.019 0.070 0.035 0.099 0.036 0.052 0.059 0.069c0.025 0.016 0.054 0.024 0.088 0.024zM3.873 31.545c-0.010 0.020-0.024 0.037-0.040 0.051l-0 0c-0.018 0.016-0.039 0.030-0.063 0.042s-0.049 0.021-0.077 0.027c-0.028 0.007-0.056 0.011-0.085 0.011-0.063 0-0.119-0.010-0.167-0.029s-0.087-0.049-0.12-0.084l-0-0c-0.032-0.037-0.057-0.082-0.073-0.13l-0.001-0.003c-0.015-0.049-0.024-0.106-0.024-0.165 0-0.003 0-0.005 0-0.008v0c0-0.137 0.031-0.241 0.094-0.312s0.152-0.107 0.267-0.107c0.037 0 0.074 0.005 0.11 0.016 0.075 0.020 0.135 0.073 0.164 0.142l0.001 0.002c0.018 0.038 0.027 0.086 0.027 0.144 0 0.018-0.001 0.037-0.003 0.056-0.001 0.018-0.004 0.038-0.008 0.059h-0.499c0 0.045 0.005 0.087 0.016 0.126 0.012 0.038 0.029 0.072 0.051 0.101s0.051 0.052 0.085 0.069c0.034 0.016 0.074 0.024 0.12 0.024 0.037 0 0.075-0.005 0.114-0.016s0.067-0.025 0.086-0.042l0.022 0.026zM3.58 30.908c-0.061 0-0.107 0.021-0.139 0.062-0.032 0.041-0.051 0.113-0.058 0.216h0.352c0.001-0.008 0.002-0.018 0.002-0.027v-0c0.001-0.008 0.002-0.018 0.002-0.027v-0c0-0.068-0.013-0.123-0.038-0.163s-0.066-0.061-0.12-0.061zM4.354 30.977c-0.012 0.006-0.027 0.020-0.045 0.040-0.017 0.019-0.033 0.048-0.046 0.086v0.475c0.021 0.002 0.043 0.006 0.064 0.013 0.021 0.005 0.043 0.014 0.064 0.026v0.040h-0.378v-0.040c0.019-0.011 0.037-0.019 0.054-0.024s0.034-0.010 0.051-0.014v-0.629l-0.106-0.013v-0.042c0.030-0.013 0.065-0.026 0.101-0.034l0.004-0.001c0.036-0.010 0.071-0.017 0.104-0.022h0.040v0.17h0.006c0.010-0.021 0.023-0.043 0.040-0.064 0.018-0.021 0.038-0.041 0.061-0.058 0.022-0.016 0.047-0.029 0.073-0.038l0.002-0.001c0.028-0.010 0.056-0.013 0.085-0.010 0.007 0.014 0.014 0.029 0.019 0.046 0.006 0.016 0.012 0.033 0.018 0.051v0.042h-0.213zM5.501 31.657h-0.344v-0.040c0.029-0.015 0.060-0.028 0.094-0.038v-0.379c0-0.081-0.012-0.145-0.035-0.192s-0.066-0.070-0.128-0.070c-0 0-0.001 0-0.001 0-0.027 0-0.052 0.005-0.075 0.015l0.001-0c-0.023 0.010-0.044 0.024-0.061 0.040l0-0c-0.017 0.016-0.032 0.035-0.045 0.056-0.013 0.020-0.023 0.042-0.030 0.064v0.467c0.033 0.006 0.065 0.019 0.096 0.038v0.040h-0.346v-0.040c0.027-0.014 0.062-0.027 0.106-0.038v-0.629l-0.106-0.013v-0.042c0.028-0.012 0.060-0.022 0.096-0.032s0.074-0.018 0.114-0.026h0.040v0.179h0.002c0.022-0.049 0.054-0.091 0.096-0.126 0.043-0.035 0.094-0.053 0.154-0.053 0.043 0 0.080 0.005 0.114 0.016 0.034 0.010 0.062 0.027 0.085 0.053s0.039 0.060 0.051 0.104c0.012 0.043 0.018 0.097 0.018 0.163v0.405c0.043 0.007 0.078 0.020 0.106 0.038v0.040zM6.6 31.545c-0.019 0.037-0.051 0.069-0.094 0.094-0.043 0.025-0.093 0.037-0.15 0.037-0.063 0-0.118-0.010-0.165-0.029-0.046-0.020-0.084-0.049-0.115-0.084l-0-0c-0.031-0.038-0.055-0.082-0.070-0.13l-0.001-0.003c-0.014-0.050-0.022-0.107-0.022-0.166 0-0.002 0-0.005 0-0.007v0c0-0.135 0.033-0.239 0.099-0.31 0.066-0.073 0.156-0.109 0.27-0.109 0.052 0 0.099 0.005 0.139 0.014 0.042 0.009 0.077 0.020 0.106 0.035-0.003 0.035-0.009 0.075-0.018 0.118s-0.019 0.080-0.032 0.109h-0.043l-0.067-0.19c-0.007-0.005-0.016-0.009-0.025-0.011l-0-0c-0.012-0.003-0.026-0.005-0.041-0.005-0.003 0-0.005 0-0.008 0h0c-0.072 0-0.128 0.027-0.168 0.080-0.039 0.052-0.059 0.141-0.059 0.267 0 0.041 0.005 0.080 0.016 0.118 0.012 0.038 0.029 0.073 0.051 0.104 0.024 0.030 0.052 0.054 0.086 0.072 0.035 0.018 0.076 0.027 0.122 0.027 0.037 0 0.070-0.005 0.098-0.016s0.051-0.023 0.070-0.038l0.021 0.022zM7.083 31.657h-0.355v-0.040c0.035-0.017 0.070-0.030 0.106-0.038v-1.013l-0.122-0.013v-0.042c0.028-0.013 0.062-0.024 0.104-0.034s0.082-0.018 0.122-0.024h0.040v1.125c0.035 0.009 0.070 0.021 0.106 0.038v0.040zM7.209 31.257c0-0.067 0.009-0.126 0.026-0.178s0.043-0.095 0.077-0.131l-0 0c0.033-0.036 0.072-0.063 0.118-0.082 0.047-0.019 0.099-0.029 0.155-0.029 0.066 0 0.123 0.010 0.171 0.030s0.087 0.049 0.117 0.086c0.031 0.036 0.053 0.080 0.067 0.131 0.015 0.051 0.022 0.108 0.022 0.171 0 0.134-0.034 0.238-0.102 0.31s-0.16 0.109-0.275 0.109c-0.064 0-0.12-0.010-0.166-0.029s-0.085-0.049-0.116-0.084l-0-0c-0.031-0.038-0.055-0.082-0.070-0.13l-0.001-0.003c-0.014-0.050-0.022-0.107-0.022-0.166 0-0.002 0-0.005 0-0.007v0zM7.363 31.257c0 0.048 0.004 0.093 0.013 0.136s0.024 0.080 0.043 0.112c0.020 0.031 0.046 0.055 0.078 0.074s0.070 0.027 0.115 0.027c0.058 0 0.105-0.028 0.141-0.085 0.037-0.057 0.056-0.145 0.056-0.264 0-0.049-0.005-0.094-0.014-0.136-0.008-0.042-0.022-0.079-0.042-0.112l0.001 0.001c-0.018-0.031-0.043-0.056-0.073-0.075l-0.001-0.001c-0.030-0.018-0.066-0.027-0.107-0.027-0.063 0-0.114 0.028-0.152 0.085s-0.058 0.145-0.058 0.264zM8.035 30.896c0.037-0.024 0.079-0.043 0.125-0.054l0.003-0.001v-0.136c0.014-0.012 0.030-0.022 0.048-0.030 0.019-0.010 0.038-0.019 0.056-0.027h0.040v0.21h0.24v0.080h-0.24v0.464c0 0.064 0.010 0.109 0.030 0.136s0.051 0.040 0.091 0.040c0.019 0 0.043-0.001 0.072-0.003 0.029-0.003 0.053-0.009 0.074-0.016l0.011 0.024c-0.011 0.011-0.023 0.021-0.036 0.030l-0.001 0c-0.015 0.011-0.033 0.021-0.053 0.030-0.018 0.009-0.039 0.017-0.062 0.023l-0.002 0.001c-0.021 0.006-0.046 0.010-0.072 0.010-0 0-0 0-0 0h0c-0.064 0-0.113-0.018-0.147-0.054s-0.050-0.095-0.050-0.176v-0.509h-0.128v-0.042zM9.517 31.657h-0.346v-0.040c0.027-0.014 0.059-0.028 0.092-0.037l0.004-0.001v-0.374c0-0.083-0.012-0.148-0.035-0.195-0.023-0.048-0.066-0.072-0.128-0.072-0.028 0-0.053 0.005-0.075 0.016s-0.043 0.023-0.061 0.039l0-0c-0.018 0.016-0.034 0.035-0.046 0.056-0.012 0.018-0.022 0.040-0.028 0.062l-0 0.002v0.467c0.017 0.004 0.033 0.009 0.048 0.014 0.016 0.005 0.031 0.013 0.046 0.024v0.040h-0.344v-0.040c0.030-0.016 0.066-0.029 0.103-0.038l0.003-0.001v-1.013l-0.122-0.013v-0.042c0.031-0.013 0.067-0.024 0.107-0.034 0.042-0.010 0.081-0.018 0.118-0.024h0.040v0.565h0.002c0.022-0.050 0.054-0.093 0.096-0.128 0.043-0.035 0.094-0.053 0.154-0.053 0.043 0 0.081 0.005 0.114 0.016 0.034 0.010 0.062 0.027 0.085 0.053s0.039 0.060 0.051 0.104c0.012 0.043 0.018 0.097 0.018 0.163v0.405c0.018 0.004 0.036 0.009 0.054 0.014s0.035 0.013 0.051 0.024v0.040zM10.257 31.545c-0.010 0.020-0.024 0.037-0.040 0.051l-0 0c-0.018 0.016-0.039 0.030-0.062 0.042s-0.049 0.021-0.077 0.027c-0.028 0.007-0.056 0.011-0.085 0.011-0.063 0-0.118-0.010-0.166-0.029s-0.088-0.049-0.12-0.084l-0-0c-0.032-0.037-0.057-0.082-0.073-0.13l-0.001-0.003c-0.015-0.049-0.024-0.106-0.024-0.165 0-0.003 0-0.005 0-0.008v0c0-0.137 0.031-0.241 0.094-0.312s0.152-0.107 0.267-0.107c0.037 0 0.074 0.005 0.11 0.016 0.075 0.020 0.135 0.073 0.164 0.142l0.001 0.002c0.018 0.038 0.027 0.086 0.027 0.144 0 0.018-0.001 0.037-0.003 0.056-0.001 0.018-0.004 0.038-0.008 0.059h-0.499c0 0.045 0.005 0.087 0.016 0.126 0.012 0.038 0.029 0.072 0.051 0.101s0.051 0.052 0.085 0.069c0.034 0.016 0.074 0.024 0.12 0.024 0.037 0 0.075-0.005 0.114-0.016s0.067-0.025 0.086-0.042l0.022 0.026zM9.964 30.908c-0.061 0-0.107 0.021-0.139 0.062-0.032 0.041-0.051 0.113-0.058 0.216h0.352c0.001-0.010 0.002-0.019 0.002-0.027 0.001-0.010 0.002-0.019 0.002-0.027 0-0.068-0.013-0.123-0.038-0.163s-0.066-0.061-0.12-0.061zM10.82 31.475c0-0.001 0-0.002 0-0.003 0-0.028-0.011-0.054-0.029-0.072l0 0c-0.020-0.023-0.043-0.043-0.069-0.058l-0.001-0.001c-0.025-0.016-0.055-0.033-0.086-0.050l-0.007-0.003c-0.035-0.019-0.065-0.038-0.093-0.060l0.001 0.001c-0.028-0.023-0.052-0.049-0.071-0.079l-0.001-0.001c-0.018-0.030-0.027-0.067-0.027-0.11 0-0.029 0.006-0.055 0.019-0.080 0.014-0.025 0.032-0.045 0.054-0.062 0.022-0.018 0.048-0.032 0.078-0.042 0.030-0.011 0.062-0.016 0.096-0.016 0.058 0 0.105 0.003 0.141 0.010 0.037 0.006 0.073 0.015 0.107 0.027-0.004 0.034-0.010 0.069-0.016 0.104-0.007 0.041-0.015 0.077-0.026 0.111l0.002-0.006h-0.040l-0.061-0.163c-0.013-0.005-0.027-0.009-0.043-0.010h-0c-0.015-0.002-0.031-0.003-0.048-0.003-0 0-0.001 0-0.001 0h0c-0.001 0-0.001-0-0.002-0-0.018 0-0.035 0.004-0.050 0.012l0.001-0c-0.014 0.007-0.026 0.015-0.037 0.026v0c-0.010 0.011-0.017 0.023-0.022 0.037-0.005 0.013-0.008 0.027-0.008 0.042 0 0.028 0.010 0.055 0.027 0.075l-0-0c0.019 0.020 0.043 0.039 0.072 0.058 0.029 0.017 0.059 0.034 0.091 0.051 0.033 0.017 0.064 0.036 0.093 0.058s0.052 0.046 0.070 0.075c0.019 0.028 0.029 0.061 0.029 0.101 0 0.036-0.008 0.069-0.024 0.098s-0.037 0.054-0.063 0.073l-0.001 0c-0.027 0.020-0.058 0.036-0.092 0.046l-0.002 0c-0.035 0.012-0.073 0.018-0.114 0.018-0.002 0-0.003 0-0.005 0-0.043 0-0.085-0.005-0.125-0.014l0.004 0.001c-0.047-0.009-0.087-0.021-0.126-0.035l0.006 0.002c0.005-0.078 0.020-0.151 0.045-0.22l-0.002 0.005h0.040l0.070 0.174c0.012 0.008 0.026 0.014 0.041 0.014h0c0.017 0.001 0.033 0.002 0.046 0.002 0.047 0 0.085-0.013 0.114-0.038s0.043-0.057 0.043-0.093zM28.48 9.936c-0.056-0.041-0.106-0.084-0.152-0.13v0c-0.046-0.046-0.087-0.098-0.121-0.155l-0.002-0.004c-0.033-0.056-0.061-0.121-0.080-0.189l-0.001-0.006c-0.019-0.071-0.029-0.152-0.029-0.242 0-0.087 0.010-0.166 0.030-0.237 0.021-0.074 0.049-0.138 0.085-0.197l-0.002 0.004c0.037-0.061 0.078-0.114 0.123-0.162l-0 0c0.048-0.050 0.099-0.098 0.154-0.142l0.034 0.029c-0.043 0.046-0.082 0.093-0.117 0.141s-0.066 0.1-0.091 0.157c-0.023 0.053-0.043 0.115-0.057 0.18l-0.001 0.006c-0.013 0.064-0.021 0.137-0.021 0.212 0 0.004 0 0.007 0 0.011v-0.001c0 0.080 0.007 0.154 0.022 0.222 0.015 0.067 0.035 0.129 0.061 0.186 0.027 0.058 0.057 0.11 0.091 0.157 0.035 0.047 0.073 0.090 0.112 0.128l-0.038 0.032zM28.761 8.792h-0.040c-0.012-0.031-0.024-0.067-0.037-0.109-0.012-0.042-0.022-0.081-0.030-0.118 0.037-0.032 0.082-0.057 0.134-0.075 0.049-0.018 0.106-0.029 0.165-0.029 0.002 0 0.003 0 0.005 0h-0c0.053 0 0.099 0.007 0.138 0.022s0.070 0.035 0.094 0.061c0.026 0.026 0.044 0.055 0.056 0.090 0.012 0.033 0.018 0.068 0.018 0.104 0 0.060-0.014 0.121-0.042 0.184-0.032 0.071-0.066 0.131-0.106 0.187l0.002-0.003c-0.041 0.059-0.085 0.114-0.133 0.166s-0.092 0.098-0.133 0.138l-0.067 0.062v0.006l0.090-0.010h0.275l0.078-0.179h0.040c0.002 0.023 0.004 0.049 0.006 0.077s0.004 0.056 0.005 0.085c0.002 0.028 0.004 0.055 0.005 0.082 0.001 0.026 0.002 0.048 0.002 0.067h-0.661v-0.051c0.023-0.025 0.052-0.054 0.085-0.090 0.074-0.077 0.144-0.159 0.208-0.246l0.005-0.007c0.036-0.048 0.068-0.097 0.096-0.146 0.028-0.050 0.050-0.1 0.067-0.149s0.027-0.096 0.027-0.141c0-0.031-0.004-0.060-0.013-0.088-0.007-0.028-0.019-0.052-0.036-0.072l0 0c-0.031-0.041-0.079-0.067-0.134-0.067-0.001 0-0.003 0-0.004 0h0c-0.022 0-0.042 0.002-0.059 0.005s-0.036 0.008-0.056 0.014l-0.051 0.229zM29.811 9.544c0.030 0 0.058-0.006 0.083-0.019 0.026-0.014 0.048-0.032 0.067-0.054s0.034-0.049 0.044-0.078l0.001-0.002c0.012-0.030 0.018-0.061 0.018-0.094 0-0.039-0.006-0.074-0.019-0.104-0.011-0.029-0.028-0.054-0.049-0.073l-0-0c-0.021-0.020-0.046-0.035-0.074-0.044l-0.001-0c-0.026-0.010-0.057-0.016-0.088-0.016-0.001 0-0.002 0-0.003 0h-0.104v-0.043l0.269-0.36 0.054-0.056v-0.006l-0.086 0.010h-0.27l-0.062 0.163h-0.040c-0.002-0.008-0.006-0.032-0.011-0.056l-0.002-0.016-0.010-0.075c-0.002-0.015-0.005-0.040-0.007-0.066l-0.001-0.008c-0.002-0.019-0.003-0.041-0.003-0.064v-0h0.626v0.050l-0.267 0.357-0.069 0.070v0.003l0.054-0.011c0.050 0.002 0.095 0.012 0.134 0.029s0.072 0.040 0.099 0.069c0.028 0.028 0.048 0.061 0.062 0.099s0.022 0.078 0.022 0.123c0 0.053-0.011 0.102-0.032 0.146s-0.051 0.080-0.086 0.11l-0 0c-0.035 0.029-0.076 0.053-0.12 0.070l-0.003 0.001c-0.046 0.016-0.094 0.024-0.146 0.024-0.025 0-0.051-0.002-0.078-0.006-0.031-0.004-0.058-0.009-0.085-0.017l0.004 0.001c-0.030-0.008-0.055-0.017-0.080-0.027l0.005 0.002c-0.022-0.009-0.041-0.021-0.058-0.034l0.001 0 0.045-0.144h0.032c0.006 0.007 0.015 0.017 0.026 0.029s0.023 0.024 0.035 0.037c0.013 0.013 0.025 0.026 0.037 0.038l0.030 0.034c0.011 0.002 0.024 0.005 0.042 0.008s0.039 0.005 0.067 0.005zM30.285 9.904c0.040-0.039 0.076-0.082 0.108-0.128l0.002-0.003c0.035-0.048 0.066-0.102 0.091-0.162 0.024-0.055 0.045-0.119 0.060-0.185l0.001-0.007c0.015-0.069 0.022-0.144 0.022-0.224 0-0.082-0.007-0.156-0.021-0.221-0.014-0.068-0.034-0.128-0.060-0.185l0.002 0.006c-0.026-0.058-0.056-0.108-0.091-0.154l0.001 0.002c-0.035-0.047-0.074-0.093-0.117-0.138l0.034-0.029c0.054 0.042 0.105 0.086 0.152 0.133 0.096 0.093 0.168 0.211 0.207 0.343l0.001 0.006c0.020 0.070 0.030 0.149 0.030 0.237 0 0.089-0.010 0.17-0.029 0.243-0.020 0.075-0.047 0.141-0.082 0.202l0.002-0.004c-0.035 0.063-0.076 0.117-0.123 0.165l0-0c-0.047 0.050-0.098 0.095-0.154 0.134l-0.038-0.032zM29.28 15.422c-0.056-0.041-0.106-0.084-0.152-0.13v0c-0.046-0.046-0.087-0.098-0.121-0.155l-0.002-0.004c-0.033-0.056-0.061-0.121-0.080-0.189l-0.001-0.006c-0.019-0.071-0.029-0.152-0.029-0.242 0-0.087 0.010-0.166 0.030-0.237s0.048-0.135 0.083-0.194c0.037-0.061 0.078-0.114 0.123-0.162l-0 0c0.048-0.050 0.099-0.098 0.154-0.142l0.034 0.029c-0.040 0.043-0.078 0.089-0.114 0.137l-0.003 0.004c-0.035 0.048-0.066 0.1-0.091 0.157-0.023 0.053-0.043 0.115-0.057 0.18l-0.001 0.006c-0.013 0.064-0.021 0.137-0.021 0.212 0 0.004 0 0.007 0 0.011v-0.001c0 0.080 0.007 0.154 0.022 0.222 0.015 0.067 0.035 0.129 0.061 0.186 0.027 0.058 0.057 0.11 0.091 0.157 0.035 0.047 0.073 0.090 0.112 0.128l-0.038 0.032zM29.526 14.252h-0.040c-0.007-0.033-0.015-0.084-0.022-0.135l-0.002-0.014c-0.002-0.015-0.005-0.040-0.007-0.066l-0.001-0.008c-0.001-0.023-0.002-0.045-0.002-0.064h0.662v0.046c-0.040 0.069-0.085 0.155-0.125 0.243l-0.008 0.019c-0.035 0.080-0.066 0.161-0.091 0.243-0.021 0.066-0.043 0.153-0.061 0.242l-0.003 0.017c-0.013 0.056-0.032 0.161-0.049 0.266l-0.006 0.043h-0.16c0.048-0.187 0.098-0.342 0.157-0.492l-0.010 0.028c0.074-0.193 0.142-0.346 0.217-0.495l-0.014 0.031 0.048-0.077-0.083 0.008h-0.339l-0.062 0.163zM30.232 15.39c0.039-0.038 0.076-0.082 0.11-0.131 0.035-0.048 0.066-0.102 0.091-0.162 0.024-0.055 0.045-0.119 0.060-0.185l0.001-0.007c0.015-0.069 0.022-0.144 0.022-0.224 0-0.003 0-0.007 0-0.011 0-0.074-0.008-0.147-0.022-0.217l0.001 0.007c-0.014-0.068-0.034-0.128-0.060-0.185l0.002 0.006c-0.026-0.058-0.056-0.108-0.091-0.154l0.001 0.002c-0.038-0.051-0.077-0.096-0.117-0.138l0.001 0.001 0.034-0.029c0.054 0.042 0.105 0.086 0.152 0.133 0.048 0.047 0.090 0.099 0.125 0.157 0.034 0.055 0.062 0.119 0.082 0.186l0.001 0.006c0.020 0.070 0.030 0.149 0.030 0.237 0 0.003 0 0.006 0 0.009 0 0.083-0.011 0.164-0.030 0.241l0.001-0.007c-0.020 0.075-0.047 0.141-0.082 0.202l0.002-0.004c-0.035 0.063-0.076 0.117-0.123 0.165l0-0c-0.046 0.049-0.096 0.093-0.151 0.132l-0.003 0.002-0.038-0.032zM28.48 20.907c-0.056-0.041-0.106-0.084-0.152-0.13v0c-0.046-0.046-0.087-0.098-0.121-0.155l-0.002-0.004c-0.033-0.056-0.061-0.121-0.080-0.189l-0.001-0.006c-0.019-0.071-0.029-0.152-0.029-0.242 0-0.087 0.010-0.166 0.030-0.237s0.048-0.135 0.083-0.194c0.037-0.061 0.078-0.114 0.123-0.162l-0 0c0.048-0.050 0.099-0.098 0.154-0.142l0.034 0.029c-0.040 0.043-0.078 0.089-0.114 0.137l-0.003 0.004c-0.035 0.048-0.066 0.1-0.091 0.157-0.023 0.053-0.043 0.115-0.057 0.18l-0.001 0.006c-0.013 0.064-0.021 0.137-0.021 0.212 0 0.004 0 0.007 0 0.011v-0.001c0 0.080 0.007 0.154 0.022 0.222 0.015 0.067 0.035 0.129 0.061 0.186 0.027 0.058 0.057 0.11 0.091 0.157 0.035 0.047 0.073 0.090 0.112 0.128l-0.038 0.032zM29.228 20.571h-0.467v-0.046c0.021-0.010 0.047-0.020 0.074-0.029l0.006-0.002c0.028-0.010 0.055-0.018 0.083-0.024v-0.786l0.006-0.094c-0.027 0.011-0.058 0.020-0.090 0.025l-0.003 0c-0.032 0.004-0.065 0.006-0.099 0.005l-0.008-0.038c0.049-0.016 0.1-0.036 0.152-0.059 0.055-0.026 0.103-0.057 0.147-0.092l-0.001 0.001h0.040v1.038c0.027 0.006 0.053 0.014 0.080 0.024 0.027 0.009 0.053 0.019 0.080 0.030v0.046zM30.205 20.234c0 0.049-0.009 0.095-0.026 0.139-0.017 0.043-0.041 0.081-0.072 0.114-0.031 0.032-0.068 0.058-0.112 0.077-0.042 0.017-0.090 0.027-0.141 0.027-0.002 0-0.004 0-0.005-0h0c-0.060 0-0.113-0.010-0.158-0.030-0.046-0.021-0.085-0.051-0.116-0.088l-0-0c-0.031-0.037-0.055-0.082-0.070-0.13l-0.001-0.003c-0.015-0.049-0.024-0.104-0.024-0.162 0-0.002 0-0.004 0-0.006v0c0-0.1 0.016-0.192 0.050-0.275 0.033-0.085 0.078-0.159 0.132-0.224l-0.001 0.001c0.054-0.063 0.116-0.117 0.185-0.16l0.003-0.002c0.064-0.039 0.138-0.070 0.217-0.089l0.005-0.001 0.018 0.048c-0.057 0.020-0.11 0.048-0.162 0.083s-0.096 0.076-0.135 0.121l-0.001 0.001c-0.038 0.046-0.072 0.098-0.097 0.154l-0.002 0.004c-0.026 0.055-0.043 0.118-0.049 0.185l-0 0.002c0.017-0.029 0.047-0.055 0.091-0.078 0.044-0.025 0.094-0.037 0.152-0.037 0.046 0 0.088 0.007 0.128 0.022s0.073 0.036 0.101 0.064c0.028 0.028 0.050 0.062 0.066 0.102s0.024 0.087 0.024 0.139zM30.051 20.247c0-0.076-0.019-0.138-0.056-0.186s-0.088-0.072-0.154-0.072c-0.050 0-0.093 0.013-0.13 0.038-0.035 0.025-0.060 0.052-0.075 0.083-0.002 0.015-0.003 0.032-0.003 0.049 0 0.001 0 0.003 0 0.004v-0 0.048c0 0.034 0.004 0.069 0.013 0.106 0.010 0.035 0.023 0.068 0.042 0.098 0.019 0.030 0.043 0.054 0.070 0.074 0.029 0.019 0.062 0.029 0.099 0.029 0.034 0 0.063-0.007 0.088-0.022 0.024-0.016 0.044-0.037 0.059-0.062 0.016-0.026 0.028-0.054 0.035-0.086 0.007-0.030 0.011-0.064 0.011-0.099v-0zM30.285 20.875c0.039-0.038 0.076-0.082 0.11-0.131 0.035-0.048 0.066-0.102 0.091-0.162 0.024-0.055 0.045-0.119 0.060-0.185l0.001-0.007c0.015-0.069 0.022-0.144 0.022-0.224 0-0.003 0-0.007 0-0.011 0-0.074-0.008-0.147-0.022-0.217l0.001 0.007c-0.014-0.068-0.034-0.128-0.060-0.185l0.002 0.006c-0.026-0.058-0.056-0.108-0.091-0.154l0.001 0.002c-0.038-0.051-0.077-0.096-0.117-0.138l0.001 0.001 0.034-0.029c0.054 0.042 0.105 0.086 0.152 0.133 0.048 0.047 0.090 0.099 0.125 0.157 0.034 0.055 0.062 0.119 0.082 0.186l0.001 0.006c0.020 0.070 0.030 0.149 0.030 0.237 0 0.003 0 0.006 0 0.009 0 0.083-0.011 0.164-0.030 0.241l0.001-0.007c-0.020 0.075-0.047 0.141-0.082 0.202l0.002-0.004c-0.035 0.063-0.076 0.117-0.123 0.165l0-0c-0.046 0.049-0.096 0.093-0.151 0.132l-0.003 0.002-0.038-0.032zM29.28 26.393c-0.056-0.041-0.106-0.084-0.152-0.13v0c-0.046-0.046-0.087-0.098-0.121-0.155l-0.002-0.004c-0.033-0.056-0.061-0.121-0.080-0.189l-0.001-0.006c-0.019-0.071-0.029-0.152-0.029-0.242 0-0.087 0.010-0.166 0.030-0.237s0.048-0.135 0.083-0.194c0.037-0.061 0.078-0.114 0.123-0.162l-0 0c0.048-0.050 0.099-0.098 0.154-0.142l0.034 0.029c-0.040 0.043-0.078 0.089-0.114 0.137l-0.003 0.004c-0.035 0.048-0.066 0.1-0.091 0.157-0.023 0.053-0.043 0.115-0.057 0.18l-0.001 0.006c-0.013 0.064-0.021 0.137-0.021 0.212 0 0.004 0 0.007 0 0.011v-0.001c0 0.080 0.007 0.154 0.022 0.222 0.015 0.067 0.035 0.129 0.061 0.186 0.027 0.058 0.057 0.11 0.091 0.157 0.035 0.047 0.073 0.090 0.112 0.128l-0.038 0.032zM30.038 24.849h0.040c-0.001 0.016-0.003 0.034-0.005 0.054-0.001 0.019-0.003 0.039-0.006 0.059l-0.010 0.056c-0.003 0.017-0.007 0.032-0.012 0.047l0.001-0.002h-0.394l-0.038 0.309h0.104c0.053 0 0.102 0.007 0.146 0.022 0.045 0.014 0.083 0.035 0.114 0.064 0.032 0.028 0.056 0.062 0.074 0.102s0.027 0.087 0.027 0.139c0 0.062-0.011 0.116-0.032 0.163s-0.049 0.086-0.085 0.118l-0 0c-0.034 0.030-0.074 0.054-0.117 0.070l-0.003 0.001c-0.045 0.016-0.091 0.024-0.139 0.024-0.024-0-0.048-0.003-0.071-0.007l0.003 0c-0.028-0.004-0.053-0.009-0.077-0.017l0.003 0.001c-0.027-0.009-0.049-0.017-0.071-0.027l0.004 0.002c-0.021-0.010-0.039-0.021-0.055-0.034l0.001 0.001 0.046-0.144h0.032c0.016 0.019 0.034 0.040 0.050 0.062l0.003 0.003c0.011 0.013 0.021 0.026 0.030 0.038 0.011 0.013 0.020 0.024 0.029 0.034 0.011 0.002 0.020 0.005 0.029 0.008 0.010 0.003 0.024 0.005 0.043 0.005 0.035 0 0.067-0.007 0.096-0.021 0.030-0.014 0.056-0.033 0.077-0.056l0-0c0.021-0.025 0.038-0.053 0.050-0.085s0.018-0.067 0.018-0.104c0-0.043-0.008-0.079-0.024-0.11s-0.038-0.057-0.065-0.076l-0.001-0c-0.028-0.020-0.060-0.035-0.096-0.044l-0.002-0c-0.031-0.008-0.066-0.013-0.102-0.013-0.005 0-0.009 0-0.014 0l0.001-0-0.114 0.002 0.064-0.555h0.381l0.069-0.088zM30.232 26.361c0.039-0.038 0.076-0.082 0.11-0.131 0.035-0.048 0.066-0.102 0.091-0.162 0.024-0.055 0.045-0.119 0.060-0.185l0.001-0.007c0.015-0.069 0.022-0.144 0.022-0.224 0-0.003 0-0.007 0-0.011 0-0.074-0.008-0.147-0.022-0.217l0.001 0.007c-0.014-0.068-0.034-0.128-0.060-0.185l0.002 0.006c-0.026-0.058-0.056-0.108-0.091-0.154l0.001 0.002c-0.038-0.051-0.077-0.096-0.117-0.138l0.001 0.001 0.034-0.029c0.054 0.042 0.105 0.086 0.152 0.133 0.048 0.047 0.090 0.099 0.125 0.157 0.034 0.055 0.062 0.119 0.082 0.186l0.001 0.006c0.020 0.070 0.030 0.149 0.030 0.237 0 0.003 0 0.006 0 0.009 0 0.083-0.011 0.164-0.030 0.241l0.001-0.007c-0.020 0.075-0.047 0.141-0.082 0.202l0.002-0.004c-0.035 0.063-0.076 0.117-0.123 0.165l0-0c-0.046 0.049-0.096 0.093-0.151 0.132l-0.003 0.002-0.038-0.032zM28.48 31.879c-0.056-0.041-0.106-0.084-0.152-0.13v0c-0.046-0.046-0.087-0.098-0.121-0.155l-0.002-0.004c-0.033-0.056-0.061-0.121-0.080-0.189l-0.001-0.006c-0.019-0.071-0.029-0.152-0.029-0.242 0-0.087 0.010-0.166 0.030-0.237s0.048-0.135 0.083-0.194c0.037-0.061 0.078-0.114 0.123-0.162l-0 0c0.048-0.050 0.099-0.098 0.154-0.142l0.034 0.029c-0.040 0.043-0.078 0.089-0.114 0.137l-0.003 0.004c-0.035 0.048-0.066 0.1-0.091 0.157-0.023 0.053-0.043 0.115-0.057 0.18l-0.001 0.006c-0.013 0.064-0.021 0.137-0.021 0.212 0 0.004 0 0.007 0 0.011v-0.001c0 0.080 0.007 0.154 0.022 0.222 0.015 0.067 0.035 0.129 0.061 0.186 0.027 0.058 0.057 0.11 0.091 0.157 0.035 0.047 0.073 0.090 0.112 0.128l-0.038 0.032zM29.228 31.543h-0.467v-0.046c0.021-0.010 0.047-0.020 0.074-0.029l0.006-0.002c0.028-0.010 0.055-0.018 0.083-0.024v-0.786l0.006-0.094c-0.027 0.011-0.058 0.020-0.090 0.025l-0.003 0c-0.032 0.004-0.065 0.006-0.099 0.005l-0.008-0.038c0.049-0.016 0.1-0.036 0.152-0.059 0.055-0.026 0.103-0.057 0.147-0.092l-0.001 0.001h0.040v1.038c0.027 0.006 0.053 0.014 0.080 0.024 0.027 0.009 0.053 0.019 0.080 0.030v0.046zM29.614 30.735h-0.040c-0.012-0.031-0.024-0.067-0.037-0.109-0.007-0.023-0.018-0.063-0.027-0.103l-0.003-0.016c0.037-0.032 0.082-0.057 0.134-0.075 0.049-0.018 0.106-0.029 0.165-0.029 0.002 0 0.003 0 0.005 0h-0c0.053 0 0.099 0.007 0.138 0.022s0.070 0.035 0.094 0.061c0.026 0.026 0.044 0.055 0.056 0.090 0.012 0.033 0.018 0.068 0.018 0.104 0 0.060-0.014 0.121-0.042 0.184-0.032 0.071-0.066 0.131-0.106 0.187l0.002-0.003c-0.041 0.059-0.085 0.114-0.133 0.166s-0.092 0.098-0.133 0.138l-0.067 0.062v0.006l0.090-0.010h0.275l0.078-0.179h0.040c0.002 0.023 0.004 0.049 0.006 0.077s0.004 0.056 0.005 0.085c0.002 0.028 0.004 0.055 0.005 0.082 0.001 0.026 0.002 0.048 0.002 0.067h-0.661v-0.051c0.023-0.025 0.052-0.054 0.085-0.090 0.074-0.077 0.144-0.159 0.208-0.246l0.005-0.007c0.036-0.048 0.068-0.097 0.096-0.146 0.028-0.050 0.050-0.1 0.067-0.149s0.027-0.096 0.027-0.141c0-0.031-0.004-0.060-0.013-0.088-0.007-0.028-0.019-0.052-0.036-0.072l0 0c-0.031-0.041-0.079-0.067-0.134-0.067-0.001 0-0.003 0-0.004 0h0c-0.022 0-0.042 0.002-0.059 0.005s-0.036 0.008-0.056 0.014l-0.051 0.229zM30.285 31.847c0.039-0.038 0.076-0.082 0.11-0.131 0.035-0.048 0.066-0.102 0.091-0.162 0.024-0.055 0.045-0.119 0.060-0.185l0.001-0.007c0.015-0.069 0.022-0.144 0.022-0.224 0-0.003 0-0.007 0-0.011 0-0.074-0.008-0.147-0.022-0.217l0.001 0.007c-0.014-0.068-0.034-0.128-0.060-0.185l0.002 0.006c-0.026-0.058-0.056-0.108-0.091-0.154l0.001 0.002c-0.038-0.051-0.077-0.096-0.117-0.138l0.001 0.001 0.034-0.029c0.054 0.042 0.105 0.086 0.152 0.133 0.048 0.047 0.090 0.099 0.125 0.157 0.034 0.055 0.062 0.119 0.082 0.186l0.001 0.006c0.020 0.070 0.030 0.149 0.030 0.237 0 0.003 0 0.006 0 0.009 0 0.083-0.011 0.164-0.030 0.241l0.001-0.007c-0.020 0.075-0.047 0.141-0.082 0.202l0.002-0.004c-0.035 0.063-0.076 0.117-0.123 0.165l0-0c-0.046 0.049-0.096 0.093-0.151 0.132l-0.003 0.002-0.038-0.032z"></path>
</symbol>
  </defs>
</svg>
